G04 #@! TF.GenerationSoftware,KiCad,Pcbnew,9.0.5*
G04 #@! TF.CreationDate,2026-01-22T23:22:38-08:00*
G04 #@! TF.ProjectId,alana-kb,616c616e-612d-46b6-922e-6b696361645f,rev?*
G04 #@! TF.SameCoordinates,Original*
G04 #@! TF.FileFunction,Legend,Bot*
G04 #@! TF.FilePolarity,Positive*
%FSLAX46Y46*%
G04 Gerber Fmt 4.6, Leading zero omitted, Abs format (unit mm)*
G04 Created by KiCad (PCBNEW 9.0.5) date 2026-01-22 23:22:38*
%MOMM*%
%LPD*%
G01*
G04 APERTURE LIST*
%ADD10C,3.500000*%
%ADD11C,1.750000*%
%ADD12C,3.987800*%
%ADD13C,3.048000*%
G04 APERTURE END LIST*
%LPC*%
D10*
X361950000Y-52387500D03*
X169068750Y-52387500D03*
X52387500Y-80962500D03*
X190500000Y-140493750D03*
D11*
X224155000Y-104775000D03*
D12*
X219075000Y-104775000D03*
D11*
X213995000Y-104775000D03*
X181292500Y-142875000D03*
D12*
X176212500Y-142875000D03*
D11*
X171132500Y-142875000D03*
X195580000Y-123825000D03*
D12*
X190500000Y-123825000D03*
D11*
X185420000Y-123825000D03*
X276542500Y-38100000D03*
D12*
X271462500Y-38100000D03*
D11*
X266382500Y-38100000D03*
X109855000Y-85725000D03*
D12*
X104775000Y-85725000D03*
D11*
X99695000Y-85725000D03*
D12*
X295275000Y-151100000D03*
D13*
X295275000Y-135890000D03*
D12*
X257175000Y-151100000D03*
D13*
X257175000Y-135890000D03*
D11*
X171767500Y-85725000D03*
D12*
X166687500Y-85725000D03*
D11*
X161607500Y-85725000D03*
X324167500Y-85725000D03*
D12*
X319087500Y-85725000D03*
D11*
X314007500Y-85725000D03*
D12*
X128619250Y-132050000D03*
D13*
X128619250Y-116840000D03*
D12*
X104743250Y-132050000D03*
D13*
X104743250Y-116840000D03*
D11*
X152717500Y-85725000D03*
D12*
X147637500Y-85725000D03*
D11*
X142557500Y-85725000D03*
X364648750Y-104775000D03*
D12*
X359568750Y-104775000D03*
D11*
X354488750Y-104775000D03*
X114617500Y-66675000D03*
D12*
X109537500Y-66675000D03*
D11*
X104457500Y-66675000D03*
X162242500Y-66675000D03*
D12*
X157162500Y-66675000D03*
D11*
X152082500Y-66675000D03*
X209867500Y-38100000D03*
D12*
X204787500Y-38100000D03*
D11*
X199707500Y-38100000D03*
X247967500Y-85725000D03*
D12*
X242887500Y-85725000D03*
D11*
X237807500Y-85725000D03*
X343217500Y-85725000D03*
D12*
X338137500Y-85725000D03*
D11*
X333057500Y-85725000D03*
X116998750Y-104775000D03*
D12*
X111918750Y-104775000D03*
D11*
X106838750Y-104775000D03*
X247967500Y-38100000D03*
D12*
X242887500Y-38100000D03*
D11*
X237807500Y-38100000D03*
X314642500Y-66675000D03*
D12*
X309562500Y-66675000D03*
D11*
X304482500Y-66675000D03*
X121761250Y-123825000D03*
D12*
X116681250Y-123825000D03*
D11*
X111601250Y-123825000D03*
X186055000Y-104775000D03*
D12*
X180975000Y-104775000D03*
D11*
X175895000Y-104775000D03*
X295592500Y-38100000D03*
D12*
X290512500Y-38100000D03*
D11*
X285432500Y-38100000D03*
X224155000Y-142875000D03*
D12*
X219075000Y-142875000D03*
D11*
X213995000Y-142875000D03*
D12*
X366744250Y-132050000D03*
D13*
X366744250Y-116840000D03*
D12*
X342868250Y-132050000D03*
D13*
X342868250Y-116840000D03*
D11*
X233680000Y-123825000D03*
D12*
X228600000Y-123825000D03*
D11*
X223520000Y-123825000D03*
X309880000Y-123825000D03*
D12*
X304800000Y-123825000D03*
D11*
X299720000Y-123825000D03*
X81280000Y-66675000D03*
D12*
X76200000Y-66675000D03*
D11*
X71120000Y-66675000D03*
X371792500Y-66675000D03*
D12*
X366712500Y-66675000D03*
D11*
X361632500Y-66675000D03*
X162242500Y-38100000D03*
D12*
X157162500Y-38100000D03*
D11*
X152082500Y-38100000D03*
X359886250Y-123825000D03*
D12*
X354806250Y-123825000D03*
D11*
X349726250Y-123825000D03*
X333692500Y-38100000D03*
D12*
X328612500Y-38100000D03*
D11*
X323532500Y-38100000D03*
X333692500Y-66675000D03*
D12*
X328612500Y-66675000D03*
D11*
X323532500Y-66675000D03*
X328930000Y-123825000D03*
D12*
X323850000Y-123825000D03*
D11*
X318770000Y-123825000D03*
X281305000Y-104775000D03*
D12*
X276225000Y-104775000D03*
D11*
X271145000Y-104775000D03*
X257492500Y-66675000D03*
D12*
X252412500Y-66675000D03*
D11*
X247332500Y-66675000D03*
X262255000Y-104775000D03*
D12*
X257175000Y-104775000D03*
D11*
X252095000Y-104775000D03*
X62230000Y-38100000D03*
D12*
X57150000Y-38100000D03*
D11*
X52070000Y-38100000D03*
X243205000Y-104775000D03*
D12*
X238125000Y-104775000D03*
D11*
X233045000Y-104775000D03*
X276542500Y-66675000D03*
D12*
X271462500Y-66675000D03*
D11*
X266382500Y-66675000D03*
X176530000Y-123825000D03*
D12*
X171450000Y-123825000D03*
D11*
X166370000Y-123825000D03*
X271780000Y-123825000D03*
D12*
X266700000Y-123825000D03*
D11*
X261620000Y-123825000D03*
X200342500Y-66675000D03*
D12*
X195262500Y-66675000D03*
D11*
X190182500Y-66675000D03*
X209867500Y-85725000D03*
D12*
X204787500Y-85725000D03*
D11*
X199707500Y-85725000D03*
X267017500Y-85725000D03*
D12*
X261937500Y-85725000D03*
D11*
X256857500Y-85725000D03*
X167005000Y-104775000D03*
D12*
X161925000Y-104775000D03*
D11*
X156845000Y-104775000D03*
X300355000Y-104775000D03*
D12*
X295275000Y-104775000D03*
D11*
X290195000Y-104775000D03*
X238442500Y-66675000D03*
D12*
X233362500Y-66675000D03*
D11*
X228282500Y-66675000D03*
X107473750Y-142875000D03*
D12*
X102393750Y-142875000D03*
D11*
X97313750Y-142875000D03*
X181292500Y-66675000D03*
D12*
X176212500Y-66675000D03*
D11*
X171132500Y-66675000D03*
X214630000Y-123825000D03*
D12*
X209550000Y-123825000D03*
D11*
X204470000Y-123825000D03*
X338455000Y-104775000D03*
D12*
X333375000Y-104775000D03*
D11*
X328295000Y-104775000D03*
X228917500Y-38100000D03*
D12*
X223837500Y-38100000D03*
D11*
X218757500Y-38100000D03*
X133667500Y-85725000D03*
D12*
X128587500Y-85725000D03*
D11*
X123507500Y-85725000D03*
X105092500Y-38100000D03*
D12*
X100012500Y-38100000D03*
D11*
X94932500Y-38100000D03*
X62230000Y-123825000D03*
D12*
X57150000Y-123825000D03*
D11*
X52070000Y-123825000D03*
X43180000Y-66675000D03*
D12*
X38100000Y-66675000D03*
D11*
X33020000Y-66675000D03*
X305117500Y-85725000D03*
D12*
X300037500Y-85725000D03*
D11*
X294957500Y-85725000D03*
X124142500Y-38100000D03*
D12*
X119062500Y-38100000D03*
D11*
X113982500Y-38100000D03*
X252730000Y-123825000D03*
D12*
X247650000Y-123825000D03*
D11*
X242570000Y-123825000D03*
X352742500Y-66675000D03*
D12*
X347662500Y-66675000D03*
D11*
X342582500Y-66675000D03*
X367030000Y-85725000D03*
D12*
X361950000Y-85725000D03*
D11*
X356870000Y-85725000D03*
X219392500Y-66675000D03*
D12*
X214312500Y-66675000D03*
D11*
X209232500Y-66675000D03*
X157480000Y-123825000D03*
D12*
X152400000Y-123825000D03*
D11*
X147320000Y-123825000D03*
X321786250Y-142875000D03*
D12*
X316706250Y-142875000D03*
D11*
X311626250Y-142875000D03*
X81280000Y-38100000D03*
D12*
X76200000Y-38100000D03*
D11*
X71120000Y-38100000D03*
X319405000Y-104775000D03*
D12*
X314325000Y-104775000D03*
D11*
X309245000Y-104775000D03*
X314642500Y-38100000D03*
D12*
X309562500Y-38100000D03*
D11*
X304482500Y-38100000D03*
X190817500Y-85725000D03*
D12*
X185737500Y-85725000D03*
D11*
X180657500Y-85725000D03*
X43180000Y-142875000D03*
D12*
X38100000Y-142875000D03*
D11*
X33020000Y-142875000D03*
X143192500Y-38100000D03*
D12*
X138112500Y-38100000D03*
D11*
X133032500Y-38100000D03*
X131286250Y-142875000D03*
D12*
X126206250Y-142875000D03*
D11*
X121126250Y-142875000D03*
X345598750Y-142875000D03*
D12*
X340518750Y-142875000D03*
D11*
X335438750Y-142875000D03*
X143192500Y-66675000D03*
D12*
X138112500Y-66675000D03*
D11*
X133032500Y-66675000D03*
X62230000Y-66675000D03*
D12*
X57150000Y-66675000D03*
D11*
X52070000Y-66675000D03*
D12*
X238125000Y-151100000D03*
D13*
X238125000Y-135890000D03*
D12*
X200025000Y-151100000D03*
D13*
X200025000Y-135890000D03*
D11*
X205105000Y-104775000D03*
D12*
X200025000Y-104775000D03*
D11*
X194945000Y-104775000D03*
X290830000Y-123825000D03*
D12*
X285750000Y-123825000D03*
D11*
X280670000Y-123825000D03*
X228917500Y-85725000D03*
D12*
X223837500Y-85725000D03*
D11*
X218757500Y-85725000D03*
X147955000Y-104775000D03*
D12*
X142875000Y-104775000D03*
D11*
X137795000Y-104775000D03*
X155098750Y-142875000D03*
D12*
X150018750Y-142875000D03*
D11*
X144938750Y-142875000D03*
X43180000Y-38100000D03*
D12*
X38100000Y-38100000D03*
D11*
X33020000Y-38100000D03*
X286067500Y-85725000D03*
D12*
X280987500Y-85725000D03*
D11*
X275907500Y-85725000D03*
X81280000Y-142875000D03*
D12*
X76200000Y-142875000D03*
D11*
X71120000Y-142875000D03*
X369411250Y-142875000D03*
D12*
X364331250Y-142875000D03*
D11*
X359251250Y-142875000D03*
X190817500Y-38100000D03*
D12*
X185737500Y-38100000D03*
D11*
X180657500Y-38100000D03*
D12*
X123856750Y-113000000D03*
D13*
X123856750Y-97790000D03*
D12*
X99980750Y-113000000D03*
D13*
X99980750Y-97790000D03*
D11*
X371792500Y-38100000D03*
D12*
X366712500Y-38100000D03*
D11*
X361632500Y-38100000D03*
D12*
X121475500Y-74900000D03*
D13*
X121475500Y-59690000D03*
D12*
X97599500Y-74900000D03*
D13*
X97599500Y-59690000D03*
D11*
X281305000Y-142875000D03*
D12*
X276225000Y-142875000D03*
D11*
X271145000Y-142875000D03*
X295592500Y-66675000D03*
D12*
X290512500Y-66675000D03*
D11*
X285432500Y-66675000D03*
X62230000Y-142875000D03*
D12*
X57150000Y-142875000D03*
D11*
X52070000Y-142875000D03*
%LPD*%
M02*
