M48
; DRILL file {KiCad 9.0.5} date 2026-01-22T23:22:43-0800
; FORMAT={-:-/ absolute / metric / decimal}
; #@! TF.CreationDate,2026-01-22T23:22:43-08:00
; #@! TF.GenerationSoftware,Kicad,Pcbnew,9.0.5
; #@! TF.FileFunction,Plated,1,4,PTH
FMAT,2
METRIC
; #@! TA.AperFunction,Plated,PTH,ViaDrill
T1C0.250
; #@! TA.AperFunction,Plated,PTH,ViaDrill
T2C0.300
; #@! TA.AperFunction,Plated,PTH,ViaDrill
T3C0.400
; #@! TA.AperFunction,Plated,PTH,ComponentDrill
T4C1.524
; #@! TA.AperFunction,Plated,PTH,ComponentDrill
T5C2.200
%
G90
G05
T1
X72.5Y-105.0
T2
X63.6Y-101.4
X64.4Y-98.0
X64.5Y-102.23
X66.0Y-101.4
X68.077Y-96.472
X74.518Y-98.563
X193.25Y-93.25
X193.25Y-94.25
X211.646Y-40.396
X212.354Y-41.104
T3
X65.916Y-84.057
X66.0Y-82.5
X66.0Y-92.4
X66.2Y-96.9
X66.348Y-85.41
X67.25Y-94.7
X67.7Y-90.3
X67.848Y-85.41
X68.7Y-90.3
X69.348Y-85.41
X69.5Y-115.25
X70.0Y-89.8
X70.0Y-93.6
X70.25Y-83.25
X71.388Y-85.0
X71.39Y-81.364
X71.5Y-89.8
X71.5Y-93.6
X73.0Y-89.8
X73.0Y-93.6
X73.346Y-85.0
X73.349Y-81.364
X73.75Y-106.7
X76.2Y-97.5
X79.5Y-120.75
X84.5Y-125.25
X84.75Y-105.6
X86.25Y-125.25
X86.5Y-105.6
X88.0Y-125.25
X88.25Y-105.6
X89.75Y-125.25
X90.0Y-105.6
X91.5Y-125.25
X91.75Y-105.6
X93.25Y-125.25
X208.6Y-21.705
X209.4Y-21.705
X210.2Y-21.705
X212.5Y-27.0
X218.4Y-21.7
X218.55Y-29.15
X218.55Y-30.65
X218.55Y-32.15
X218.6Y-33.45
X219.2Y-21.7
X219.3Y-29.9
X219.3Y-31.4
X220.0Y-21.7
T4
X35.56Y-33.02
X35.56Y-61.595
X35.56Y-137.795
X41.91Y-35.56
X41.91Y-64.135
X41.91Y-140.335
X54.61Y-33.02
X54.61Y-61.595
X54.61Y-118.745
X54.61Y-137.795
X60.96Y-35.56
X60.96Y-64.135
X60.96Y-121.285
X60.96Y-140.335
X73.66Y-33.02
X73.66Y-61.595
X73.66Y-137.795
X80.01Y-35.56
X80.01Y-64.135
X80.01Y-140.335
X97.472Y-33.02
X99.854Y-137.795
X102.235Y-80.645
X103.822Y-35.56
X106.204Y-140.335
X106.997Y-61.595
X108.585Y-83.185
X109.379Y-99.695
X113.347Y-64.135
X114.141Y-118.745
X115.729Y-102.235
X116.522Y-33.02
X120.491Y-121.285
X122.872Y-35.56
X123.666Y-137.795
X126.047Y-80.645
X130.016Y-140.335
X132.398Y-83.185
X135.572Y-33.02
X135.572Y-61.595
X140.335Y-99.695
X141.922Y-35.56
X141.922Y-64.135
X145.097Y-80.645
X146.685Y-102.235
X147.479Y-137.795
X149.86Y-118.745
X151.447Y-83.185
X153.829Y-140.335
X154.623Y-33.02
X154.623Y-61.595
X156.21Y-121.285
X159.385Y-99.695
X160.972Y-35.56
X160.972Y-64.135
X164.147Y-80.645
X165.735Y-102.235
X168.91Y-118.745
X170.498Y-83.185
X173.672Y-61.595
X173.672Y-137.795
X175.26Y-121.285
X178.435Y-99.695
X180.022Y-64.135
X180.022Y-140.335
X183.197Y-33.02
X183.197Y-80.645
X184.785Y-102.235
X187.96Y-118.745
X189.547Y-35.56
X189.547Y-83.185
X192.722Y-61.595
X194.31Y-121.285
X197.485Y-99.695
X199.072Y-64.135
X202.248Y-33.02
X202.248Y-80.645
X203.835Y-102.235
X207.01Y-118.745
X208.597Y-35.56
X208.597Y-83.185
X211.772Y-61.595
X213.36Y-121.285
X216.535Y-99.695
X216.535Y-137.795
X218.123Y-64.135
X221.297Y-33.02
X221.297Y-80.645
X222.885Y-102.235
X222.885Y-140.335
X226.06Y-118.745
X227.647Y-35.56
X227.647Y-83.185
X230.822Y-61.595
X232.41Y-121.285
X235.585Y-99.695
X237.172Y-64.135
X240.347Y-33.02
X240.347Y-80.645
X241.935Y-102.235
X245.11Y-118.745
X246.697Y-35.56
X246.697Y-83.185
X249.873Y-61.595
X251.46Y-121.285
X254.635Y-99.695
X256.222Y-64.135
X259.397Y-80.645
X260.985Y-102.235
X264.16Y-118.745
X265.748Y-83.185
X268.923Y-33.02
X268.923Y-61.595
X270.51Y-121.285
X273.685Y-99.695
X273.685Y-137.795
X275.272Y-35.56
X275.272Y-64.135
X278.447Y-80.645
X280.035Y-102.235
X280.035Y-140.335
X283.21Y-118.745
X284.798Y-83.185
X287.972Y-33.02
X287.972Y-61.595
X289.56Y-121.285
X292.735Y-99.695
X294.322Y-35.56
X294.322Y-64.135
X297.498Y-80.645
X299.085Y-102.235
X302.26Y-118.745
X303.847Y-83.185
X307.022Y-33.02
X307.022Y-61.595
X308.61Y-121.285
X311.785Y-99.695
X313.373Y-35.56
X313.373Y-64.135
X314.166Y-137.795
X316.548Y-80.645
X318.135Y-102.235
X320.516Y-140.335
X321.31Y-118.745
X322.897Y-83.185
X326.072Y-33.02
X326.072Y-61.595
X327.66Y-121.285
X330.835Y-99.695
X332.422Y-35.56
X332.422Y-64.135
X335.597Y-80.645
X337.185Y-102.235
X337.979Y-137.795
X341.947Y-83.185
X344.329Y-140.335
X345.123Y-61.595
X351.472Y-64.135
X352.266Y-118.745
X357.029Y-99.695
X358.616Y-121.285
X359.41Y-80.645
X361.791Y-137.795
X363.379Y-102.235
X364.172Y-33.02
X364.172Y-61.595
X365.76Y-83.185
X368.141Y-140.335
X370.522Y-35.56
X370.522Y-64.135
T5
X52.387Y-80.962
X169.069Y-52.387
X190.5Y-140.494
X361.95Y-52.387
M30
