%TF.GenerationSoftware,KiCad,Pcbnew,9.0.5*%
%TF.CreationDate,2026-01-22T23:22:43-08:00*%
%TF.ProjectId,alana-kb,616c616e-612d-46b6-922e-6b696361645f,rev?*%
%TF.SameCoordinates,Original*%
%TF.FileFunction,Drillmap*%
%TF.FilePolarity,Positive*%
%FSLAX45Y45*%
G04 Gerber Fmt 4.5, Leading zero omitted, Abs format (unit mm)*
G04 Created by KiCad (PCBNEW 9.0.5) date 2026-01-22 23:22:43*
%MOMM*%
%LPD*%
G01*
G04 APERTURE LIST*
%ADD10C,0.200000*%
%ADD11C,0.175000*%
%ADD12C,0.304800*%
%ADD13C,0.398780*%
G04 APERTURE END LIST*
D10*
X38232569Y-16068721D02*
X2232569Y-16068721D01*
X38432569Y-15868721D02*
G75*
G02*
X38232569Y-16068719I-199999J1D01*
G01*
X38232569Y-2068721D02*
G75*
G02*
X38432569Y-2268721I1J-199999D01*
G01*
X38432569Y-2268721D02*
X38432569Y-15868721D01*
X2232569Y-2068721D02*
X38232569Y-2068721D01*
X2232569Y-16068721D02*
G75*
G02*
X2032569Y-15868721I1J200001D01*
G01*
X2032569Y-2268721D02*
G75*
G02*
X2232569Y-2068719I200001J1D01*
G01*
X2032569Y-15868721D02*
X2032569Y-2268721D01*
D11*
X3214500Y-3722500D02*
X3389500Y-3897500D01*
X3389500Y-3722500D02*
X3214500Y-3897500D01*
X3214500Y-6580000D02*
X3389500Y-6755000D01*
X3389500Y-6580000D02*
X3214500Y-6755000D01*
X3214500Y-14200000D02*
X3389500Y-14375000D01*
X3389500Y-14200000D02*
X3214500Y-14375000D01*
X4230500Y-3722500D02*
X4405500Y-3897500D01*
X4405500Y-3722500D02*
X4230500Y-3897500D01*
X4230500Y-6580000D02*
X4405500Y-6755000D01*
X4405500Y-6580000D02*
X4230500Y-6755000D01*
X4230500Y-14200000D02*
X4405500Y-14375000D01*
X4405500Y-14200000D02*
X4230500Y-14375000D01*
X5119500Y-3722500D02*
X5294500Y-3897500D01*
X5294500Y-3722500D02*
X5119500Y-3897500D01*
X5119500Y-6580000D02*
X5294500Y-6755000D01*
X5294500Y-6580000D02*
X5119500Y-6755000D01*
X5119500Y-12295000D02*
X5294500Y-12470000D01*
X5294500Y-12295000D02*
X5119500Y-12470000D01*
X5119500Y-14200000D02*
X5294500Y-14375000D01*
X5294500Y-14200000D02*
X5119500Y-14375000D01*
X6135500Y-3722500D02*
X6310500Y-3897500D01*
X6310500Y-3722500D02*
X6135500Y-3897500D01*
X6135500Y-6580000D02*
X6310500Y-6755000D01*
X6310500Y-6580000D02*
X6135500Y-6755000D01*
X6135500Y-12295000D02*
X6310500Y-12470000D01*
X6310500Y-12295000D02*
X6135500Y-12470000D01*
X6135500Y-14200000D02*
X6310500Y-14375000D01*
X6310500Y-14200000D02*
X6135500Y-14375000D01*
X7024500Y-3722500D02*
X7199500Y-3897500D01*
X7199500Y-3722500D02*
X7024500Y-3897500D01*
X7024500Y-6580000D02*
X7199500Y-6755000D01*
X7199500Y-6580000D02*
X7024500Y-6755000D01*
X7024500Y-14200000D02*
X7199500Y-14375000D01*
X7199500Y-14200000D02*
X7024500Y-14375000D01*
X8040500Y-3722500D02*
X8215500Y-3897500D01*
X8215500Y-3722500D02*
X8040500Y-3897500D01*
X8040500Y-6580000D02*
X8215500Y-6755000D01*
X8215500Y-6580000D02*
X8040500Y-6755000D01*
X8040500Y-14200000D02*
X8215500Y-14375000D01*
X8215500Y-14200000D02*
X8040500Y-14375000D01*
X9405750Y-3722500D02*
X9580750Y-3897500D01*
X9580750Y-3722500D02*
X9405750Y-3897500D01*
X9643875Y-14200000D02*
X9818875Y-14375000D01*
X9818875Y-14200000D02*
X9643875Y-14375000D01*
X9882000Y-8485000D02*
X10057000Y-8660000D01*
X10057000Y-8485000D02*
X9882000Y-8660000D01*
X10358250Y-6580000D02*
X10533250Y-6755000D01*
X10533250Y-6580000D02*
X10358250Y-6755000D01*
X10421750Y-3722500D02*
X10596750Y-3897500D01*
X10596750Y-3722500D02*
X10421750Y-3897500D01*
X10596375Y-10390000D02*
X10771375Y-10565000D01*
X10771375Y-10390000D02*
X10596375Y-10565000D01*
X10659875Y-14200000D02*
X10834875Y-14375000D01*
X10834875Y-14200000D02*
X10659875Y-14375000D01*
X10898000Y-8485000D02*
X11073000Y-8660000D01*
X11073000Y-8485000D02*
X10898000Y-8660000D01*
X11072625Y-12295000D02*
X11247625Y-12470000D01*
X11247625Y-12295000D02*
X11072625Y-12470000D01*
X11310750Y-3722500D02*
X11485750Y-3897500D01*
X11485750Y-3722500D02*
X11310750Y-3897500D01*
X11374250Y-6580000D02*
X11549250Y-6755000D01*
X11549250Y-6580000D02*
X11374250Y-6755000D01*
X11612375Y-10390000D02*
X11787375Y-10565000D01*
X11787375Y-10390000D02*
X11612375Y-10565000D01*
X12025125Y-14200000D02*
X12200125Y-14375000D01*
X12200125Y-14200000D02*
X12025125Y-14375000D01*
X12088625Y-12295000D02*
X12263625Y-12470000D01*
X12263625Y-12295000D02*
X12088625Y-12470000D01*
X12263250Y-8485000D02*
X12438250Y-8660000D01*
X12438250Y-8485000D02*
X12263250Y-8660000D01*
X12326750Y-3722500D02*
X12501750Y-3897500D01*
X12501750Y-3722500D02*
X12326750Y-3897500D01*
X13041125Y-14200000D02*
X13216125Y-14375000D01*
X13216125Y-14200000D02*
X13041125Y-14375000D01*
X13215750Y-3722500D02*
X13390750Y-3897500D01*
X13390750Y-3722500D02*
X13215750Y-3897500D01*
X13215750Y-6580000D02*
X13390750Y-6755000D01*
X13390750Y-6580000D02*
X13215750Y-6755000D01*
X13279250Y-8485000D02*
X13454250Y-8660000D01*
X13454250Y-8485000D02*
X13279250Y-8660000D01*
X13692000Y-10390000D02*
X13867000Y-10565000D01*
X13867000Y-10390000D02*
X13692000Y-10565000D01*
X14168250Y-8485000D02*
X14343250Y-8660000D01*
X14343250Y-8485000D02*
X14168250Y-8660000D01*
X14231750Y-3722500D02*
X14406750Y-3897500D01*
X14406750Y-3722500D02*
X14231750Y-3897500D01*
X14231750Y-6580000D02*
X14406750Y-6755000D01*
X14406750Y-6580000D02*
X14231750Y-6755000D01*
X14406375Y-14200000D02*
X14581375Y-14375000D01*
X14581375Y-14200000D02*
X14406375Y-14375000D01*
X14644500Y-12295000D02*
X14819500Y-12470000D01*
X14819500Y-12295000D02*
X14644500Y-12470000D01*
X14708000Y-10390000D02*
X14883000Y-10565000D01*
X14883000Y-10390000D02*
X14708000Y-10565000D01*
X15120750Y-3722500D02*
X15295750Y-3897500D01*
X15295750Y-3722500D02*
X15120750Y-3897500D01*
X15120750Y-6580000D02*
X15295750Y-6755000D01*
X15295750Y-6580000D02*
X15120750Y-6755000D01*
X15184250Y-8485000D02*
X15359250Y-8660000D01*
X15359250Y-8485000D02*
X15184250Y-8660000D01*
X15422375Y-14200000D02*
X15597375Y-14375000D01*
X15597375Y-14200000D02*
X15422375Y-14375000D01*
X15597000Y-10390000D02*
X15772000Y-10565000D01*
X15772000Y-10390000D02*
X15597000Y-10565000D01*
X15660500Y-12295000D02*
X15835500Y-12470000D01*
X15835500Y-12295000D02*
X15660500Y-12470000D01*
X16073250Y-8485000D02*
X16248250Y-8660000D01*
X16248250Y-8485000D02*
X16073250Y-8660000D01*
X16136750Y-3722500D02*
X16311750Y-3897500D01*
X16311750Y-3722500D02*
X16136750Y-3897500D01*
X16136750Y-6580000D02*
X16311750Y-6755000D01*
X16311750Y-6580000D02*
X16136750Y-6755000D01*
X16549500Y-12295000D02*
X16724500Y-12470000D01*
X16724500Y-12295000D02*
X16549500Y-12470000D01*
X16613000Y-10390000D02*
X16788000Y-10565000D01*
X16788000Y-10390000D02*
X16613000Y-10565000D01*
X17025750Y-6580000D02*
X17200750Y-6755000D01*
X17200750Y-6580000D02*
X17025750Y-6755000D01*
X17025750Y-14200000D02*
X17200750Y-14375000D01*
X17200750Y-14200000D02*
X17025750Y-14375000D01*
X17089250Y-8485000D02*
X17264250Y-8660000D01*
X17264250Y-8485000D02*
X17089250Y-8660000D01*
X17502000Y-10390000D02*
X17677000Y-10565000D01*
X17677000Y-10390000D02*
X17502000Y-10565000D01*
X17565500Y-12295000D02*
X17740500Y-12470000D01*
X17740500Y-12295000D02*
X17565500Y-12470000D01*
X17978250Y-3722500D02*
X18153250Y-3897500D01*
X18153250Y-3722500D02*
X17978250Y-3897500D01*
X17978250Y-8485000D02*
X18153250Y-8660000D01*
X18153250Y-8485000D02*
X17978250Y-8660000D01*
X18041750Y-6580000D02*
X18216750Y-6755000D01*
X18216750Y-6580000D02*
X18041750Y-6755000D01*
X18041750Y-14200000D02*
X18216750Y-14375000D01*
X18216750Y-14200000D02*
X18041750Y-14375000D01*
X18454500Y-12295000D02*
X18629500Y-12470000D01*
X18629500Y-12295000D02*
X18454500Y-12470000D01*
X18518000Y-10390000D02*
X18693000Y-10565000D01*
X18693000Y-10390000D02*
X18518000Y-10565000D01*
X18930750Y-6580000D02*
X19105750Y-6755000D01*
X19105750Y-6580000D02*
X18930750Y-6755000D01*
X18994250Y-3722500D02*
X19169250Y-3897500D01*
X19169250Y-3722500D02*
X18994250Y-3897500D01*
X18994250Y-8485000D02*
X19169250Y-8660000D01*
X19169250Y-8485000D02*
X18994250Y-8660000D01*
X19407000Y-10390000D02*
X19582000Y-10565000D01*
X19582000Y-10390000D02*
X19407000Y-10565000D01*
X19470500Y-12295000D02*
X19645500Y-12470000D01*
X19645500Y-12295000D02*
X19470500Y-12470000D01*
X19883250Y-3722500D02*
X20058250Y-3897500D01*
X20058250Y-3722500D02*
X19883250Y-3897500D01*
X19883250Y-8485000D02*
X20058250Y-8660000D01*
X20058250Y-8485000D02*
X19883250Y-8660000D01*
X19946750Y-6580000D02*
X20121750Y-6755000D01*
X20121750Y-6580000D02*
X19946750Y-6755000D01*
X20359500Y-12295000D02*
X20534500Y-12470000D01*
X20534500Y-12295000D02*
X20359500Y-12470000D01*
X20423000Y-10390000D02*
X20598000Y-10565000D01*
X20598000Y-10390000D02*
X20423000Y-10565000D01*
X20835750Y-6580000D02*
X21010750Y-6755000D01*
X21010750Y-6580000D02*
X20835750Y-6755000D01*
X20899250Y-3722500D02*
X21074250Y-3897500D01*
X21074250Y-3722500D02*
X20899250Y-3897500D01*
X20899250Y-8485000D02*
X21074250Y-8660000D01*
X21074250Y-8485000D02*
X20899250Y-8660000D01*
X21312000Y-10390000D02*
X21487000Y-10565000D01*
X21487000Y-10390000D02*
X21312000Y-10565000D01*
X21312000Y-14200000D02*
X21487000Y-14375000D01*
X21487000Y-14200000D02*
X21312000Y-14375000D01*
X21375500Y-12295000D02*
X21550500Y-12470000D01*
X21550500Y-12295000D02*
X21375500Y-12470000D01*
X21788250Y-3722500D02*
X21963250Y-3897500D01*
X21963250Y-3722500D02*
X21788250Y-3897500D01*
X21788250Y-8485000D02*
X21963250Y-8660000D01*
X21963250Y-8485000D02*
X21788250Y-8660000D01*
X21851750Y-6580000D02*
X22026750Y-6755000D01*
X22026750Y-6580000D02*
X21851750Y-6755000D01*
X22264500Y-12295000D02*
X22439500Y-12470000D01*
X22439500Y-12295000D02*
X22264500Y-12470000D01*
X22328000Y-10390000D02*
X22503000Y-10565000D01*
X22503000Y-10390000D02*
X22328000Y-10565000D01*
X22328000Y-14200000D02*
X22503000Y-14375000D01*
X22503000Y-14200000D02*
X22328000Y-14375000D01*
X22740750Y-6580000D02*
X22915750Y-6755000D01*
X22915750Y-6580000D02*
X22740750Y-6755000D01*
X22804250Y-3722500D02*
X22979250Y-3897500D01*
X22979250Y-3722500D02*
X22804250Y-3897500D01*
X22804250Y-8485000D02*
X22979250Y-8660000D01*
X22979250Y-8485000D02*
X22804250Y-8660000D01*
X23217000Y-10390000D02*
X23392000Y-10565000D01*
X23392000Y-10390000D02*
X23217000Y-10565000D01*
X23280500Y-12295000D02*
X23455500Y-12470000D01*
X23455500Y-12295000D02*
X23280500Y-12470000D01*
X23693250Y-3722500D02*
X23868250Y-3897500D01*
X23868250Y-3722500D02*
X23693250Y-3897500D01*
X23693250Y-8485000D02*
X23868250Y-8660000D01*
X23868250Y-8485000D02*
X23693250Y-8660000D01*
X23756750Y-6580000D02*
X23931750Y-6755000D01*
X23931750Y-6580000D02*
X23756750Y-6755000D01*
X24169500Y-12295000D02*
X24344500Y-12470000D01*
X24344500Y-12295000D02*
X24169500Y-12470000D01*
X24233000Y-10390000D02*
X24408000Y-10565000D01*
X24408000Y-10390000D02*
X24233000Y-10565000D01*
X24645750Y-6580000D02*
X24820750Y-6755000D01*
X24820750Y-6580000D02*
X24645750Y-6755000D01*
X24709250Y-3722500D02*
X24884250Y-3897500D01*
X24884250Y-3722500D02*
X24709250Y-3897500D01*
X24709250Y-8485000D02*
X24884250Y-8660000D01*
X24884250Y-8485000D02*
X24709250Y-8660000D01*
X25122000Y-10390000D02*
X25297000Y-10565000D01*
X25297000Y-10390000D02*
X25122000Y-10565000D01*
X25185500Y-12295000D02*
X25360500Y-12470000D01*
X25360500Y-12295000D02*
X25185500Y-12470000D01*
X25598250Y-8485000D02*
X25773250Y-8660000D01*
X25773250Y-8485000D02*
X25598250Y-8660000D01*
X25661750Y-6580000D02*
X25836750Y-6755000D01*
X25836750Y-6580000D02*
X25661750Y-6755000D01*
X26074500Y-12295000D02*
X26249500Y-12470000D01*
X26249500Y-12295000D02*
X26074500Y-12470000D01*
X26138000Y-10390000D02*
X26313000Y-10565000D01*
X26313000Y-10390000D02*
X26138000Y-10565000D01*
X26550750Y-3722500D02*
X26725750Y-3897500D01*
X26725750Y-3722500D02*
X26550750Y-3897500D01*
X26550750Y-6580000D02*
X26725750Y-6755000D01*
X26725750Y-6580000D02*
X26550750Y-6755000D01*
X26614250Y-8485000D02*
X26789250Y-8660000D01*
X26789250Y-8485000D02*
X26614250Y-8660000D01*
X27027000Y-10390000D02*
X27202000Y-10565000D01*
X27202000Y-10390000D02*
X27027000Y-10565000D01*
X27027000Y-14200000D02*
X27202000Y-14375000D01*
X27202000Y-14200000D02*
X27027000Y-14375000D01*
X27090500Y-12295000D02*
X27265500Y-12470000D01*
X27265500Y-12295000D02*
X27090500Y-12470000D01*
X27503250Y-8485000D02*
X27678250Y-8660000D01*
X27678250Y-8485000D02*
X27503250Y-8660000D01*
X27566750Y-3722500D02*
X27741750Y-3897500D01*
X27741750Y-3722500D02*
X27566750Y-3897500D01*
X27566750Y-6580000D02*
X27741750Y-6755000D01*
X27741750Y-6580000D02*
X27566750Y-6755000D01*
X27979500Y-12295000D02*
X28154500Y-12470000D01*
X28154500Y-12295000D02*
X27979500Y-12470000D01*
X28043000Y-10390000D02*
X28218000Y-10565000D01*
X28218000Y-10390000D02*
X28043000Y-10565000D01*
X28043000Y-14200000D02*
X28218000Y-14375000D01*
X28218000Y-14200000D02*
X28043000Y-14375000D01*
X28455750Y-3722500D02*
X28630750Y-3897500D01*
X28630750Y-3722500D02*
X28455750Y-3897500D01*
X28455750Y-6580000D02*
X28630750Y-6755000D01*
X28630750Y-6580000D02*
X28455750Y-6755000D01*
X28519250Y-8485000D02*
X28694250Y-8660000D01*
X28694250Y-8485000D02*
X28519250Y-8660000D01*
X28932000Y-10390000D02*
X29107000Y-10565000D01*
X29107000Y-10390000D02*
X28932000Y-10565000D01*
X28995500Y-12295000D02*
X29170500Y-12470000D01*
X29170500Y-12295000D02*
X28995500Y-12470000D01*
X29408250Y-8485000D02*
X29583250Y-8660000D01*
X29583250Y-8485000D02*
X29408250Y-8660000D01*
X29471750Y-3722500D02*
X29646750Y-3897500D01*
X29646750Y-3722500D02*
X29471750Y-3897500D01*
X29471750Y-6580000D02*
X29646750Y-6755000D01*
X29646750Y-6580000D02*
X29471750Y-6755000D01*
X29884500Y-12295000D02*
X30059500Y-12470000D01*
X30059500Y-12295000D02*
X29884500Y-12470000D01*
X29948000Y-10390000D02*
X30123000Y-10565000D01*
X30123000Y-10390000D02*
X29948000Y-10565000D01*
X30360750Y-3722500D02*
X30535750Y-3897500D01*
X30535750Y-3722500D02*
X30360750Y-3897500D01*
X30360750Y-6580000D02*
X30535750Y-6755000D01*
X30535750Y-6580000D02*
X30360750Y-6755000D01*
X30424250Y-8485000D02*
X30599250Y-8660000D01*
X30599250Y-8485000D02*
X30424250Y-8660000D01*
X30837000Y-10390000D02*
X31012000Y-10565000D01*
X31012000Y-10390000D02*
X30837000Y-10565000D01*
X30900500Y-12295000D02*
X31075500Y-12470000D01*
X31075500Y-12295000D02*
X30900500Y-12470000D01*
X31075125Y-14200000D02*
X31250125Y-14375000D01*
X31250125Y-14200000D02*
X31075125Y-14375000D01*
X31313250Y-8485000D02*
X31488250Y-8660000D01*
X31488250Y-8485000D02*
X31313250Y-8660000D01*
X31376750Y-3722500D02*
X31551750Y-3897500D01*
X31551750Y-3722500D02*
X31376750Y-3897500D01*
X31376750Y-6580000D02*
X31551750Y-6755000D01*
X31551750Y-6580000D02*
X31376750Y-6755000D01*
X31789500Y-12295000D02*
X31964500Y-12470000D01*
X31964500Y-12295000D02*
X31789500Y-12470000D01*
X31853000Y-10390000D02*
X32028000Y-10565000D01*
X32028000Y-10390000D02*
X31853000Y-10565000D01*
X32091125Y-14200000D02*
X32266125Y-14375000D01*
X32266125Y-14200000D02*
X32091125Y-14375000D01*
X32265750Y-3722500D02*
X32440750Y-3897500D01*
X32440750Y-3722500D02*
X32265750Y-3897500D01*
X32265750Y-6580000D02*
X32440750Y-6755000D01*
X32440750Y-6580000D02*
X32265750Y-6755000D01*
X32329250Y-8485000D02*
X32504250Y-8660000D01*
X32504250Y-8485000D02*
X32329250Y-8660000D01*
X32742000Y-10390000D02*
X32917000Y-10565000D01*
X32917000Y-10390000D02*
X32742000Y-10565000D01*
X32805500Y-12295000D02*
X32980500Y-12470000D01*
X32980500Y-12295000D02*
X32805500Y-12470000D01*
X33218250Y-8485000D02*
X33393250Y-8660000D01*
X33393250Y-8485000D02*
X33218250Y-8660000D01*
X33281750Y-3722500D02*
X33456750Y-3897500D01*
X33456750Y-3722500D02*
X33281750Y-3897500D01*
X33281750Y-6580000D02*
X33456750Y-6755000D01*
X33456750Y-6580000D02*
X33281750Y-6755000D01*
X33456375Y-14200000D02*
X33631375Y-14375000D01*
X33631375Y-14200000D02*
X33456375Y-14375000D01*
X33758000Y-10390000D02*
X33933000Y-10565000D01*
X33933000Y-10390000D02*
X33758000Y-10565000D01*
X34170750Y-6580000D02*
X34345750Y-6755000D01*
X34345750Y-6580000D02*
X34170750Y-6755000D01*
X34234250Y-8485000D02*
X34409250Y-8660000D01*
X34409250Y-8485000D02*
X34234250Y-8660000D01*
X34472375Y-14200000D02*
X34647375Y-14375000D01*
X34647375Y-14200000D02*
X34472375Y-14375000D01*
X34885125Y-12295000D02*
X35060125Y-12470000D01*
X35060125Y-12295000D02*
X34885125Y-12470000D01*
X35186750Y-6580000D02*
X35361750Y-6755000D01*
X35361750Y-6580000D02*
X35186750Y-6755000D01*
X35361375Y-10390000D02*
X35536375Y-10565000D01*
X35536375Y-10390000D02*
X35361375Y-10565000D01*
X35599500Y-8485000D02*
X35774500Y-8660000D01*
X35774500Y-8485000D02*
X35599500Y-8660000D01*
X35837625Y-14200000D02*
X36012625Y-14375000D01*
X36012625Y-14200000D02*
X35837625Y-14375000D01*
X35901125Y-12295000D02*
X36076125Y-12470000D01*
X36076125Y-12295000D02*
X35901125Y-12470000D01*
X36075750Y-3722500D02*
X36250750Y-3897500D01*
X36250750Y-3722500D02*
X36075750Y-3897500D01*
X36075750Y-6580000D02*
X36250750Y-6755000D01*
X36250750Y-6580000D02*
X36075750Y-6755000D01*
X36377375Y-10390000D02*
X36552375Y-10565000D01*
X36552375Y-10390000D02*
X36377375Y-10565000D01*
X36615500Y-8485000D02*
X36790500Y-8660000D01*
X36790500Y-8485000D02*
X36615500Y-8660000D01*
X36853625Y-14200000D02*
X37028625Y-14375000D01*
X37028625Y-14200000D02*
X36853625Y-14375000D01*
X37091750Y-3722500D02*
X37266750Y-3897500D01*
X37266750Y-3722500D02*
X37091750Y-3897500D01*
X37091750Y-6580000D02*
X37266750Y-6755000D01*
X37266750Y-6580000D02*
X37091750Y-6755000D01*
D12*
X9912350Y-5969000D02*
G75*
G02*
X9607550Y-5969000I-152400J0D01*
G01*
X9607550Y-5969000D02*
G75*
G02*
X9912350Y-5969000I152400J0D01*
G01*
X10150475Y-9779000D02*
G75*
G02*
X9845675Y-9779000I-152400J0D01*
G01*
X9845675Y-9779000D02*
G75*
G02*
X10150475Y-9779000I152400J0D01*
G01*
X10626725Y-11684000D02*
G75*
G02*
X10321925Y-11684000I-152400J0D01*
G01*
X10321925Y-11684000D02*
G75*
G02*
X10626725Y-11684000I152400J0D01*
G01*
X12299950Y-5969000D02*
G75*
G02*
X11995150Y-5969000I-152400J0D01*
G01*
X11995150Y-5969000D02*
G75*
G02*
X12299950Y-5969000I152400J0D01*
G01*
X12538075Y-9779000D02*
G75*
G02*
X12233275Y-9779000I-152400J0D01*
G01*
X12233275Y-9779000D02*
G75*
G02*
X12538075Y-9779000I152400J0D01*
G01*
X13014325Y-11684000D02*
G75*
G02*
X12709525Y-11684000I-152400J0D01*
G01*
X12709525Y-11684000D02*
G75*
G02*
X13014325Y-11684000I152400J0D01*
G01*
X20154900Y-13589000D02*
G75*
G02*
X19850100Y-13589000I-152400J0D01*
G01*
X19850100Y-13589000D02*
G75*
G02*
X20154900Y-13589000I152400J0D01*
G01*
X23964900Y-13589000D02*
G75*
G02*
X23660100Y-13589000I-152400J0D01*
G01*
X23660100Y-13589000D02*
G75*
G02*
X23964900Y-13589000I152400J0D01*
G01*
X25869900Y-13589000D02*
G75*
G02*
X25565100Y-13589000I-152400J0D01*
G01*
X25565100Y-13589000D02*
G75*
G02*
X25869900Y-13589000I152400J0D01*
G01*
X29679900Y-13589000D02*
G75*
G02*
X29375100Y-13589000I-152400J0D01*
G01*
X29375100Y-13589000D02*
G75*
G02*
X29679900Y-13589000I152400J0D01*
G01*
X34439225Y-11684000D02*
G75*
G02*
X34134425Y-11684000I-152400J0D01*
G01*
X34134425Y-11684000D02*
G75*
G02*
X34439225Y-11684000I152400J0D01*
G01*
X36826825Y-11684000D02*
G75*
G02*
X36522025Y-11684000I-152400J0D01*
G01*
X36522025Y-11684000D02*
G75*
G02*
X36826825Y-11684000I152400J0D01*
G01*
D13*
X3810000Y-3610610D02*
X3810000Y-4009390D01*
X3610610Y-3810000D02*
X4009390Y-3810000D01*
X3810000Y-6468110D02*
X3810000Y-6866890D01*
X3610610Y-6667500D02*
X4009390Y-6667500D01*
X3810000Y-14088110D02*
X3810000Y-14486890D01*
X3610610Y-14287500D02*
X4009390Y-14287500D01*
X5715000Y-3610610D02*
X5715000Y-4009390D01*
X5515610Y-3810000D02*
X5914390Y-3810000D01*
X5715000Y-6468110D02*
X5715000Y-6866890D01*
X5515610Y-6667500D02*
X5914390Y-6667500D01*
X5715000Y-12183110D02*
X5715000Y-12581890D01*
X5515610Y-12382500D02*
X5914390Y-12382500D01*
X5715000Y-14088110D02*
X5715000Y-14486890D01*
X5515610Y-14287500D02*
X5914390Y-14287500D01*
X7620000Y-3610610D02*
X7620000Y-4009390D01*
X7420610Y-3810000D02*
X7819390Y-3810000D01*
X7620000Y-6468110D02*
X7620000Y-6866890D01*
X7420610Y-6667500D02*
X7819390Y-6667500D01*
X7620000Y-14088110D02*
X7620000Y-14486890D01*
X7420610Y-14287500D02*
X7819390Y-14287500D01*
X9759950Y-7290610D02*
X9759950Y-7689390D01*
X9560560Y-7490000D02*
X9959340Y-7490000D01*
X9998075Y-11100610D02*
X9998075Y-11499390D01*
X9798685Y-11300000D02*
X10197465Y-11300000D01*
X10001250Y-3610610D02*
X10001250Y-4009390D01*
X9801860Y-3810000D02*
X10200640Y-3810000D01*
X10239375Y-14088110D02*
X10239375Y-14486890D01*
X10039985Y-14287500D02*
X10438765Y-14287500D01*
X10474325Y-13005610D02*
X10474325Y-13404390D01*
X10274935Y-13205000D02*
X10673715Y-13205000D01*
X10477500Y-8373110D02*
X10477500Y-8771890D01*
X10278110Y-8572500D02*
X10676890Y-8572500D01*
X10953750Y-6468110D02*
X10953750Y-6866890D01*
X10754360Y-6667500D02*
X11153140Y-6667500D01*
X11191875Y-10278110D02*
X11191875Y-10676890D01*
X10992485Y-10477500D02*
X11391265Y-10477500D01*
X11668125Y-12183110D02*
X11668125Y-12581890D01*
X11468735Y-12382500D02*
X11867515Y-12382500D01*
X11906250Y-3610610D02*
X11906250Y-4009390D01*
X11706860Y-3810000D02*
X12105640Y-3810000D01*
X12147550Y-7290610D02*
X12147550Y-7689390D01*
X11948160Y-7490000D02*
X12346940Y-7490000D01*
X12385675Y-11100610D02*
X12385675Y-11499390D01*
X12186285Y-11300000D02*
X12585065Y-11300000D01*
X12620625Y-14088110D02*
X12620625Y-14486890D01*
X12421235Y-14287500D02*
X12820015Y-14287500D01*
X12858750Y-8373110D02*
X12858750Y-8771890D01*
X12659360Y-8572500D02*
X13058140Y-8572500D01*
X12861925Y-13005610D02*
X12861925Y-13404390D01*
X12662535Y-13205000D02*
X13061315Y-13205000D01*
X13811250Y-3610610D02*
X13811250Y-4009390D01*
X13611860Y-3810000D02*
X14010640Y-3810000D01*
X13811250Y-6468110D02*
X13811250Y-6866890D01*
X13611860Y-6667500D02*
X14010640Y-6667500D01*
X14287500Y-10278110D02*
X14287500Y-10676890D01*
X14088110Y-10477500D02*
X14486890Y-10477500D01*
X14763750Y-8373110D02*
X14763750Y-8771890D01*
X14564360Y-8572500D02*
X14963140Y-8572500D01*
X15001875Y-14088110D02*
X15001875Y-14486890D01*
X14802485Y-14287500D02*
X15201265Y-14287500D01*
X15240000Y-12183110D02*
X15240000Y-12581890D01*
X15040610Y-12382500D02*
X15439390Y-12382500D01*
X15716250Y-3610610D02*
X15716250Y-4009390D01*
X15516860Y-3810000D02*
X15915640Y-3810000D01*
X15716250Y-6468110D02*
X15716250Y-6866890D01*
X15516860Y-6667500D02*
X15915640Y-6667500D01*
X16192500Y-10278110D02*
X16192500Y-10676890D01*
X15993110Y-10477500D02*
X16391890Y-10477500D01*
X16668750Y-8373110D02*
X16668750Y-8771890D01*
X16469360Y-8572500D02*
X16868140Y-8572500D01*
X17145000Y-12183110D02*
X17145000Y-12581890D01*
X16945610Y-12382500D02*
X17344390Y-12382500D01*
X17621250Y-6468110D02*
X17621250Y-6866890D01*
X17421860Y-6667500D02*
X17820640Y-6667500D01*
X17621250Y-14088110D02*
X17621250Y-14486890D01*
X17421860Y-14287500D02*
X17820640Y-14287500D01*
X18097500Y-10278110D02*
X18097500Y-10676890D01*
X17898110Y-10477500D02*
X18296890Y-10477500D01*
X18573750Y-3610610D02*
X18573750Y-4009390D01*
X18374360Y-3810000D02*
X18773140Y-3810000D01*
X18573750Y-8373110D02*
X18573750Y-8771890D01*
X18374360Y-8572500D02*
X18773140Y-8572500D01*
X19050000Y-12183110D02*
X19050000Y-12581890D01*
X18850610Y-12382500D02*
X19249390Y-12382500D01*
X19526250Y-6468110D02*
X19526250Y-6866890D01*
X19326860Y-6667500D02*
X19725640Y-6667500D01*
X20002500Y-10278110D02*
X20002500Y-10676890D01*
X19803110Y-10477500D02*
X20201890Y-10477500D01*
X20002500Y-14910610D02*
X20002500Y-15309390D01*
X19803110Y-15110000D02*
X20201890Y-15110000D01*
X20478750Y-3610610D02*
X20478750Y-4009390D01*
X20279360Y-3810000D02*
X20678140Y-3810000D01*
X20478750Y-8373110D02*
X20478750Y-8771890D01*
X20279360Y-8572500D02*
X20678140Y-8572500D01*
X20955000Y-12183110D02*
X20955000Y-12581890D01*
X20755610Y-12382500D02*
X21154390Y-12382500D01*
X21431250Y-6468110D02*
X21431250Y-6866890D01*
X21231860Y-6667500D02*
X21630640Y-6667500D01*
X21907500Y-10278110D02*
X21907500Y-10676890D01*
X21708110Y-10477500D02*
X22106890Y-10477500D01*
X21907500Y-14088110D02*
X21907500Y-14486890D01*
X21708110Y-14287500D02*
X22106890Y-14287500D01*
X22383750Y-3610610D02*
X22383750Y-4009390D01*
X22184360Y-3810000D02*
X22583140Y-3810000D01*
X22383750Y-8373110D02*
X22383750Y-8771890D01*
X22184360Y-8572500D02*
X22583140Y-8572500D01*
X22860000Y-12183110D02*
X22860000Y-12581890D01*
X22660610Y-12382500D02*
X23059390Y-12382500D01*
X23336250Y-6468110D02*
X23336250Y-6866890D01*
X23136860Y-6667500D02*
X23535640Y-6667500D01*
X23812500Y-10278110D02*
X23812500Y-10676890D01*
X23613110Y-10477500D02*
X24011890Y-10477500D01*
X23812500Y-14910610D02*
X23812500Y-15309390D01*
X23613110Y-15110000D02*
X24011890Y-15110000D01*
X24288750Y-3610610D02*
X24288750Y-4009390D01*
X24089360Y-3810000D02*
X24488140Y-3810000D01*
X24288750Y-8373110D02*
X24288750Y-8771890D01*
X24089360Y-8572500D02*
X24488140Y-8572500D01*
X24765000Y-12183110D02*
X24765000Y-12581890D01*
X24565610Y-12382500D02*
X24964390Y-12382500D01*
X25241250Y-6468110D02*
X25241250Y-6866890D01*
X25041860Y-6667500D02*
X25440640Y-6667500D01*
X25717500Y-10278110D02*
X25717500Y-10676890D01*
X25518110Y-10477500D02*
X25916890Y-10477500D01*
X25717500Y-14910610D02*
X25717500Y-15309390D01*
X25518110Y-15110000D02*
X25916890Y-15110000D01*
X26193750Y-8373110D02*
X26193750Y-8771890D01*
X25994360Y-8572500D02*
X26393140Y-8572500D01*
X26670000Y-12183110D02*
X26670000Y-12581890D01*
X26470610Y-12382500D02*
X26869390Y-12382500D01*
X27146250Y-3610610D02*
X27146250Y-4009390D01*
X26946860Y-3810000D02*
X27345640Y-3810000D01*
X27146250Y-6468110D02*
X27146250Y-6866890D01*
X26946860Y-6667500D02*
X27345640Y-6667500D01*
X27622500Y-10278110D02*
X27622500Y-10676890D01*
X27423110Y-10477500D02*
X27821890Y-10477500D01*
X27622500Y-14088110D02*
X27622500Y-14486890D01*
X27423110Y-14287500D02*
X27821890Y-14287500D01*
X28098750Y-8373110D02*
X28098750Y-8771890D01*
X27899360Y-8572500D02*
X28298140Y-8572500D01*
X28575000Y-12183110D02*
X28575000Y-12581890D01*
X28375610Y-12382500D02*
X28774390Y-12382500D01*
X29051250Y-3610610D02*
X29051250Y-4009390D01*
X28851860Y-3810000D02*
X29250640Y-3810000D01*
X29051250Y-6468110D02*
X29051250Y-6866890D01*
X28851860Y-6667500D02*
X29250640Y-6667500D01*
X29527500Y-10278110D02*
X29527500Y-10676890D01*
X29328110Y-10477500D02*
X29726890Y-10477500D01*
X29527500Y-14910610D02*
X29527500Y-15309390D01*
X29328110Y-15110000D02*
X29726890Y-15110000D01*
X30003750Y-8373110D02*
X30003750Y-8771890D01*
X29804360Y-8572500D02*
X30203140Y-8572500D01*
X30480000Y-12183110D02*
X30480000Y-12581890D01*
X30280610Y-12382500D02*
X30679390Y-12382500D01*
X30956250Y-3610610D02*
X30956250Y-4009390D01*
X30756860Y-3810000D02*
X31155640Y-3810000D01*
X30956250Y-6468110D02*
X30956250Y-6866890D01*
X30756860Y-6667500D02*
X31155640Y-6667500D01*
X31432500Y-10278110D02*
X31432500Y-10676890D01*
X31233110Y-10477500D02*
X31631890Y-10477500D01*
X31670625Y-14088110D02*
X31670625Y-14486890D01*
X31471235Y-14287500D02*
X31870015Y-14287500D01*
X31908750Y-8373110D02*
X31908750Y-8771890D01*
X31709360Y-8572500D02*
X32108140Y-8572500D01*
X32385000Y-12183110D02*
X32385000Y-12581890D01*
X32185610Y-12382500D02*
X32584390Y-12382500D01*
X32861250Y-3610610D02*
X32861250Y-4009390D01*
X32661860Y-3810000D02*
X33060640Y-3810000D01*
X32861250Y-6468110D02*
X32861250Y-6866890D01*
X32661860Y-6667500D02*
X33060640Y-6667500D01*
X33337500Y-10278110D02*
X33337500Y-10676890D01*
X33138110Y-10477500D02*
X33536890Y-10477500D01*
X33813750Y-8373110D02*
X33813750Y-8771890D01*
X33614360Y-8572500D02*
X34013140Y-8572500D01*
X34051875Y-14088110D02*
X34051875Y-14486890D01*
X33852485Y-14287500D02*
X34251265Y-14287500D01*
X34286825Y-13005610D02*
X34286825Y-13404390D01*
X34087435Y-13205000D02*
X34486215Y-13205000D01*
X34766250Y-6468110D02*
X34766250Y-6866890D01*
X34566860Y-6667500D02*
X34965640Y-6667500D01*
X35480625Y-12183110D02*
X35480625Y-12581890D01*
X35281235Y-12382500D02*
X35680015Y-12382500D01*
X35956875Y-10278110D02*
X35956875Y-10676890D01*
X35757485Y-10477500D02*
X36156265Y-10477500D01*
X36195000Y-8373110D02*
X36195000Y-8771890D01*
X35995610Y-8572500D02*
X36394390Y-8572500D01*
X36433125Y-14088110D02*
X36433125Y-14486890D01*
X36233735Y-14287500D02*
X36632515Y-14287500D01*
X36671250Y-3610610D02*
X36671250Y-4009390D01*
X36471860Y-3810000D02*
X36870640Y-3810000D01*
X36671250Y-6468110D02*
X36671250Y-6866890D01*
X36471860Y-6667500D02*
X36870640Y-6667500D01*
X36674425Y-13005610D02*
X36674425Y-13404390D01*
X36475035Y-13205000D02*
X36873815Y-13205000D01*
D10*
X2283346Y-16390205D02*
X2283346Y-16190205D01*
X2283346Y-16190205D02*
X2330965Y-16190205D01*
X2330965Y-16190205D02*
X2359536Y-16199729D01*
X2359536Y-16199729D02*
X2378584Y-16218776D01*
X2378584Y-16218776D02*
X2388108Y-16237824D01*
X2388108Y-16237824D02*
X2397631Y-16275919D01*
X2397631Y-16275919D02*
X2397631Y-16304491D01*
X2397631Y-16304491D02*
X2388108Y-16342586D01*
X2388108Y-16342586D02*
X2378584Y-16361633D01*
X2378584Y-16361633D02*
X2359536Y-16380681D01*
X2359536Y-16380681D02*
X2330965Y-16390205D01*
X2330965Y-16390205D02*
X2283346Y-16390205D01*
X2483346Y-16390205D02*
X2483346Y-16256872D01*
X2483346Y-16294967D02*
X2492869Y-16275919D01*
X2492869Y-16275919D02*
X2502393Y-16266395D01*
X2502393Y-16266395D02*
X2521441Y-16256872D01*
X2521441Y-16256872D02*
X2540489Y-16256872D01*
X2607155Y-16390205D02*
X2607155Y-16256872D01*
X2607155Y-16190205D02*
X2597631Y-16199729D01*
X2597631Y-16199729D02*
X2607155Y-16209253D01*
X2607155Y-16209253D02*
X2616679Y-16199729D01*
X2616679Y-16199729D02*
X2607155Y-16190205D01*
X2607155Y-16190205D02*
X2607155Y-16209253D01*
X2730965Y-16390205D02*
X2711917Y-16380681D01*
X2711917Y-16380681D02*
X2702393Y-16361633D01*
X2702393Y-16361633D02*
X2702393Y-16190205D01*
X2835726Y-16390205D02*
X2816679Y-16380681D01*
X2816679Y-16380681D02*
X2807155Y-16361633D01*
X2807155Y-16361633D02*
X2807155Y-16190205D01*
X3064298Y-16390205D02*
X3064298Y-16190205D01*
X3064298Y-16190205D02*
X3130965Y-16333062D01*
X3130965Y-16333062D02*
X3197631Y-16190205D01*
X3197631Y-16190205D02*
X3197631Y-16390205D01*
X3378584Y-16390205D02*
X3378584Y-16285443D01*
X3378584Y-16285443D02*
X3369060Y-16266395D01*
X3369060Y-16266395D02*
X3350012Y-16256872D01*
X3350012Y-16256872D02*
X3311917Y-16256872D01*
X3311917Y-16256872D02*
X3292869Y-16266395D01*
X3378584Y-16380681D02*
X3359536Y-16390205D01*
X3359536Y-16390205D02*
X3311917Y-16390205D01*
X3311917Y-16390205D02*
X3292869Y-16380681D01*
X3292869Y-16380681D02*
X3283346Y-16361633D01*
X3283346Y-16361633D02*
X3283346Y-16342586D01*
X3283346Y-16342586D02*
X3292869Y-16323538D01*
X3292869Y-16323538D02*
X3311917Y-16314014D01*
X3311917Y-16314014D02*
X3359536Y-16314014D01*
X3359536Y-16314014D02*
X3378584Y-16304491D01*
X3473822Y-16256872D02*
X3473822Y-16456872D01*
X3473822Y-16266395D02*
X3492869Y-16256872D01*
X3492869Y-16256872D02*
X3530965Y-16256872D01*
X3530965Y-16256872D02*
X3550012Y-16266395D01*
X3550012Y-16266395D02*
X3559536Y-16275919D01*
X3559536Y-16275919D02*
X3569060Y-16294967D01*
X3569060Y-16294967D02*
X3569060Y-16352110D01*
X3569060Y-16352110D02*
X3559536Y-16371157D01*
X3559536Y-16371157D02*
X3550012Y-16380681D01*
X3550012Y-16380681D02*
X3530965Y-16390205D01*
X3530965Y-16390205D02*
X3492869Y-16390205D01*
X3492869Y-16390205D02*
X3473822Y-16380681D01*
X3654774Y-16371157D02*
X3664298Y-16380681D01*
X3664298Y-16380681D02*
X3654774Y-16390205D01*
X3654774Y-16390205D02*
X3645250Y-16380681D01*
X3645250Y-16380681D02*
X3654774Y-16371157D01*
X3654774Y-16371157D02*
X3654774Y-16390205D01*
X3654774Y-16266395D02*
X3664298Y-16275919D01*
X3664298Y-16275919D02*
X3654774Y-16285443D01*
X3654774Y-16285443D02*
X3645250Y-16275919D01*
X3645250Y-16275919D02*
X3654774Y-16266395D01*
X3654774Y-16266395D02*
X3654774Y-16285443D01*
D11*
X1847569Y-16631221D02*
X2022569Y-16806221D01*
X2022569Y-16631221D02*
X1847569Y-16806221D01*
D10*
X2388108Y-16810205D02*
X2273822Y-16810205D01*
X2330965Y-16810205D02*
X2330965Y-16610205D01*
X2330965Y-16610205D02*
X2311917Y-16638776D01*
X2311917Y-16638776D02*
X2292869Y-16657824D01*
X2292869Y-16657824D02*
X2273822Y-16667348D01*
X2473822Y-16791157D02*
X2483346Y-16800681D01*
X2483346Y-16800681D02*
X2473822Y-16810205D01*
X2473822Y-16810205D02*
X2464298Y-16800681D01*
X2464298Y-16800681D02*
X2473822Y-16791157D01*
X2473822Y-16791157D02*
X2473822Y-16810205D01*
X2550012Y-16610205D02*
X2683346Y-16610205D01*
X2683346Y-16610205D02*
X2597631Y-16810205D01*
X2854774Y-16610205D02*
X2759536Y-16610205D01*
X2759536Y-16610205D02*
X2750012Y-16705443D01*
X2750012Y-16705443D02*
X2759536Y-16695919D01*
X2759536Y-16695919D02*
X2778584Y-16686395D01*
X2778584Y-16686395D02*
X2826203Y-16686395D01*
X2826203Y-16686395D02*
X2845250Y-16695919D01*
X2845250Y-16695919D02*
X2854774Y-16705443D01*
X2854774Y-16705443D02*
X2864298Y-16724491D01*
X2864298Y-16724491D02*
X2864298Y-16772110D01*
X2864298Y-16772110D02*
X2854774Y-16791157D01*
X2854774Y-16791157D02*
X2845250Y-16800681D01*
X2845250Y-16800681D02*
X2826203Y-16810205D01*
X2826203Y-16810205D02*
X2778584Y-16810205D01*
X2778584Y-16810205D02*
X2759536Y-16800681D01*
X2759536Y-16800681D02*
X2750012Y-16791157D01*
X2988107Y-16610205D02*
X3007155Y-16610205D01*
X3007155Y-16610205D02*
X3026203Y-16619729D01*
X3026203Y-16619729D02*
X3035727Y-16629253D01*
X3035727Y-16629253D02*
X3045250Y-16648300D01*
X3045250Y-16648300D02*
X3054774Y-16686395D01*
X3054774Y-16686395D02*
X3054774Y-16734014D01*
X3054774Y-16734014D02*
X3045250Y-16772110D01*
X3045250Y-16772110D02*
X3035727Y-16791157D01*
X3035727Y-16791157D02*
X3026203Y-16800681D01*
X3026203Y-16800681D02*
X3007155Y-16810205D01*
X3007155Y-16810205D02*
X2988107Y-16810205D01*
X2988107Y-16810205D02*
X2969060Y-16800681D01*
X2969060Y-16800681D02*
X2959536Y-16791157D01*
X2959536Y-16791157D02*
X2950012Y-16772110D01*
X2950012Y-16772110D02*
X2940488Y-16734014D01*
X2940488Y-16734014D02*
X2940488Y-16686395D01*
X2940488Y-16686395D02*
X2950012Y-16648300D01*
X2950012Y-16648300D02*
X2959536Y-16629253D01*
X2959536Y-16629253D02*
X2969060Y-16619729D01*
X2969060Y-16619729D02*
X2988107Y-16610205D01*
X3140488Y-16810205D02*
X3140488Y-16676872D01*
X3140488Y-16695919D02*
X3150012Y-16686395D01*
X3150012Y-16686395D02*
X3169060Y-16676872D01*
X3169060Y-16676872D02*
X3197631Y-16676872D01*
X3197631Y-16676872D02*
X3216679Y-16686395D01*
X3216679Y-16686395D02*
X3226203Y-16705443D01*
X3226203Y-16705443D02*
X3226203Y-16810205D01*
X3226203Y-16705443D02*
X3235727Y-16686395D01*
X3235727Y-16686395D02*
X3254774Y-16676872D01*
X3254774Y-16676872D02*
X3283346Y-16676872D01*
X3283346Y-16676872D02*
X3302393Y-16686395D01*
X3302393Y-16686395D02*
X3311917Y-16705443D01*
X3311917Y-16705443D02*
X3311917Y-16810205D01*
X3407155Y-16810205D02*
X3407155Y-16676872D01*
X3407155Y-16695919D02*
X3416679Y-16686395D01*
X3416679Y-16686395D02*
X3435727Y-16676872D01*
X3435727Y-16676872D02*
X3464298Y-16676872D01*
X3464298Y-16676872D02*
X3483346Y-16686395D01*
X3483346Y-16686395D02*
X3492869Y-16705443D01*
X3492869Y-16705443D02*
X3492869Y-16810205D01*
X3492869Y-16705443D02*
X3502393Y-16686395D01*
X3502393Y-16686395D02*
X3521441Y-16676872D01*
X3521441Y-16676872D02*
X3550012Y-16676872D01*
X3550012Y-16676872D02*
X3569060Y-16686395D01*
X3569060Y-16686395D02*
X3578584Y-16705443D01*
X3578584Y-16705443D02*
X3578584Y-16810205D01*
X3969060Y-16600681D02*
X3797631Y-16857824D01*
X4226203Y-16610205D02*
X4245251Y-16610205D01*
X4245251Y-16610205D02*
X4264298Y-16619729D01*
X4264298Y-16619729D02*
X4273822Y-16629253D01*
X4273822Y-16629253D02*
X4283346Y-16648300D01*
X4283346Y-16648300D02*
X4292870Y-16686395D01*
X4292870Y-16686395D02*
X4292870Y-16734014D01*
X4292870Y-16734014D02*
X4283346Y-16772110D01*
X4283346Y-16772110D02*
X4273822Y-16791157D01*
X4273822Y-16791157D02*
X4264298Y-16800681D01*
X4264298Y-16800681D02*
X4245251Y-16810205D01*
X4245251Y-16810205D02*
X4226203Y-16810205D01*
X4226203Y-16810205D02*
X4207155Y-16800681D01*
X4207155Y-16800681D02*
X4197632Y-16791157D01*
X4197632Y-16791157D02*
X4188108Y-16772110D01*
X4188108Y-16772110D02*
X4178584Y-16734014D01*
X4178584Y-16734014D02*
X4178584Y-16686395D01*
X4178584Y-16686395D02*
X4188108Y-16648300D01*
X4188108Y-16648300D02*
X4197632Y-16629253D01*
X4197632Y-16629253D02*
X4207155Y-16619729D01*
X4207155Y-16619729D02*
X4226203Y-16610205D01*
X4378584Y-16791157D02*
X4388108Y-16800681D01*
X4388108Y-16800681D02*
X4378584Y-16810205D01*
X4378584Y-16810205D02*
X4369060Y-16800681D01*
X4369060Y-16800681D02*
X4378584Y-16791157D01*
X4378584Y-16791157D02*
X4378584Y-16810205D01*
X4511917Y-16610205D02*
X4530965Y-16610205D01*
X4530965Y-16610205D02*
X4550013Y-16619729D01*
X4550013Y-16619729D02*
X4559536Y-16629253D01*
X4559536Y-16629253D02*
X4569060Y-16648300D01*
X4569060Y-16648300D02*
X4578584Y-16686395D01*
X4578584Y-16686395D02*
X4578584Y-16734014D01*
X4578584Y-16734014D02*
X4569060Y-16772110D01*
X4569060Y-16772110D02*
X4559536Y-16791157D01*
X4559536Y-16791157D02*
X4550013Y-16800681D01*
X4550013Y-16800681D02*
X4530965Y-16810205D01*
X4530965Y-16810205D02*
X4511917Y-16810205D01*
X4511917Y-16810205D02*
X4492870Y-16800681D01*
X4492870Y-16800681D02*
X4483346Y-16791157D01*
X4483346Y-16791157D02*
X4473822Y-16772110D01*
X4473822Y-16772110D02*
X4464298Y-16734014D01*
X4464298Y-16734014D02*
X4464298Y-16686395D01*
X4464298Y-16686395D02*
X4473822Y-16648300D01*
X4473822Y-16648300D02*
X4483346Y-16629253D01*
X4483346Y-16629253D02*
X4492870Y-16619729D01*
X4492870Y-16619729D02*
X4511917Y-16610205D01*
X4750013Y-16610205D02*
X4711917Y-16610205D01*
X4711917Y-16610205D02*
X4692870Y-16619729D01*
X4692870Y-16619729D02*
X4683346Y-16629253D01*
X4683346Y-16629253D02*
X4664298Y-16657824D01*
X4664298Y-16657824D02*
X4654774Y-16695919D01*
X4654774Y-16695919D02*
X4654774Y-16772110D01*
X4654774Y-16772110D02*
X4664298Y-16791157D01*
X4664298Y-16791157D02*
X4673822Y-16800681D01*
X4673822Y-16800681D02*
X4692870Y-16810205D01*
X4692870Y-16810205D02*
X4730965Y-16810205D01*
X4730965Y-16810205D02*
X4750013Y-16800681D01*
X4750013Y-16800681D02*
X4759536Y-16791157D01*
X4759536Y-16791157D02*
X4769060Y-16772110D01*
X4769060Y-16772110D02*
X4769060Y-16724491D01*
X4769060Y-16724491D02*
X4759536Y-16705443D01*
X4759536Y-16705443D02*
X4750013Y-16695919D01*
X4750013Y-16695919D02*
X4730965Y-16686395D01*
X4730965Y-16686395D02*
X4692870Y-16686395D01*
X4692870Y-16686395D02*
X4673822Y-16695919D01*
X4673822Y-16695919D02*
X4664298Y-16705443D01*
X4664298Y-16705443D02*
X4654774Y-16724491D01*
X4883346Y-16695919D02*
X4864298Y-16686395D01*
X4864298Y-16686395D02*
X4854774Y-16676872D01*
X4854774Y-16676872D02*
X4845251Y-16657824D01*
X4845251Y-16657824D02*
X4845251Y-16648300D01*
X4845251Y-16648300D02*
X4854774Y-16629253D01*
X4854774Y-16629253D02*
X4864298Y-16619729D01*
X4864298Y-16619729D02*
X4883346Y-16610205D01*
X4883346Y-16610205D02*
X4921441Y-16610205D01*
X4921441Y-16610205D02*
X4940489Y-16619729D01*
X4940489Y-16619729D02*
X4950013Y-16629253D01*
X4950013Y-16629253D02*
X4959536Y-16648300D01*
X4959536Y-16648300D02*
X4959536Y-16657824D01*
X4959536Y-16657824D02*
X4950013Y-16676872D01*
X4950013Y-16676872D02*
X4940489Y-16686395D01*
X4940489Y-16686395D02*
X4921441Y-16695919D01*
X4921441Y-16695919D02*
X4883346Y-16695919D01*
X4883346Y-16695919D02*
X4864298Y-16705443D01*
X4864298Y-16705443D02*
X4854774Y-16714967D01*
X4854774Y-16714967D02*
X4845251Y-16734014D01*
X4845251Y-16734014D02*
X4845251Y-16772110D01*
X4845251Y-16772110D02*
X4854774Y-16791157D01*
X4854774Y-16791157D02*
X4864298Y-16800681D01*
X4864298Y-16800681D02*
X4883346Y-16810205D01*
X4883346Y-16810205D02*
X4921441Y-16810205D01*
X4921441Y-16810205D02*
X4940489Y-16800681D01*
X4940489Y-16800681D02*
X4950013Y-16791157D01*
X4950013Y-16791157D02*
X4959536Y-16772110D01*
X4959536Y-16772110D02*
X4959536Y-16734014D01*
X4959536Y-16734014D02*
X4950013Y-16714967D01*
X4950013Y-16714967D02*
X4940489Y-16705443D01*
X4940489Y-16705443D02*
X4921441Y-16695919D01*
X5054774Y-16810205D02*
X5092870Y-16810205D01*
X5092870Y-16810205D02*
X5111917Y-16800681D01*
X5111917Y-16800681D02*
X5121441Y-16791157D01*
X5121441Y-16791157D02*
X5140489Y-16762586D01*
X5140489Y-16762586D02*
X5150013Y-16724491D01*
X5150013Y-16724491D02*
X5150013Y-16648300D01*
X5150013Y-16648300D02*
X5140489Y-16629253D01*
X5140489Y-16629253D02*
X5130965Y-16619729D01*
X5130965Y-16619729D02*
X5111917Y-16610205D01*
X5111917Y-16610205D02*
X5073822Y-16610205D01*
X5073822Y-16610205D02*
X5054774Y-16619729D01*
X5054774Y-16619729D02*
X5045251Y-16629253D01*
X5045251Y-16629253D02*
X5035727Y-16648300D01*
X5035727Y-16648300D02*
X5035727Y-16695919D01*
X5035727Y-16695919D02*
X5045251Y-16714967D01*
X5045251Y-16714967D02*
X5054774Y-16724491D01*
X5054774Y-16724491D02*
X5073822Y-16734014D01*
X5073822Y-16734014D02*
X5111917Y-16734014D01*
X5111917Y-16734014D02*
X5130965Y-16724491D01*
X5130965Y-16724491D02*
X5140489Y-16714967D01*
X5140489Y-16714967D02*
X5150013Y-16695919D01*
X5226203Y-16610205D02*
X5226203Y-16648300D01*
X5302394Y-16610205D02*
X5302394Y-16648300D01*
X5597632Y-16886395D02*
X5588108Y-16876872D01*
X5588108Y-16876872D02*
X5569060Y-16848300D01*
X5569060Y-16848300D02*
X5559536Y-16829253D01*
X5559536Y-16829253D02*
X5550013Y-16800681D01*
X5550013Y-16800681D02*
X5540489Y-16753062D01*
X5540489Y-16753062D02*
X5540489Y-16714967D01*
X5540489Y-16714967D02*
X5550013Y-16667348D01*
X5550013Y-16667348D02*
X5559536Y-16638776D01*
X5559536Y-16638776D02*
X5569060Y-16619729D01*
X5569060Y-16619729D02*
X5588108Y-16591157D01*
X5588108Y-16591157D02*
X5597632Y-16581633D01*
X5778584Y-16810205D02*
X5664298Y-16810205D01*
X5721441Y-16810205D02*
X5721441Y-16610205D01*
X5721441Y-16610205D02*
X5702393Y-16638776D01*
X5702393Y-16638776D02*
X5683346Y-16657824D01*
X5683346Y-16657824D02*
X5664298Y-16667348D01*
X5845251Y-16610205D02*
X5978584Y-16610205D01*
X5978584Y-16610205D02*
X5892870Y-16810205D01*
X6092870Y-16610205D02*
X6111917Y-16610205D01*
X6111917Y-16610205D02*
X6130965Y-16619729D01*
X6130965Y-16619729D02*
X6140489Y-16629253D01*
X6140489Y-16629253D02*
X6150013Y-16648300D01*
X6150013Y-16648300D02*
X6159536Y-16686395D01*
X6159536Y-16686395D02*
X6159536Y-16734014D01*
X6159536Y-16734014D02*
X6150013Y-16772110D01*
X6150013Y-16772110D02*
X6140489Y-16791157D01*
X6140489Y-16791157D02*
X6130965Y-16800681D01*
X6130965Y-16800681D02*
X6111917Y-16810205D01*
X6111917Y-16810205D02*
X6092870Y-16810205D01*
X6092870Y-16810205D02*
X6073822Y-16800681D01*
X6073822Y-16800681D02*
X6064298Y-16791157D01*
X6064298Y-16791157D02*
X6054774Y-16772110D01*
X6054774Y-16772110D02*
X6045251Y-16734014D01*
X6045251Y-16734014D02*
X6045251Y-16686395D01*
X6045251Y-16686395D02*
X6054774Y-16648300D01*
X6054774Y-16648300D02*
X6064298Y-16629253D01*
X6064298Y-16629253D02*
X6073822Y-16619729D01*
X6073822Y-16619729D02*
X6092870Y-16610205D01*
X6397632Y-16810205D02*
X6397632Y-16610205D01*
X6483346Y-16810205D02*
X6483346Y-16705443D01*
X6483346Y-16705443D02*
X6473822Y-16686395D01*
X6473822Y-16686395D02*
X6454775Y-16676872D01*
X6454775Y-16676872D02*
X6426203Y-16676872D01*
X6426203Y-16676872D02*
X6407155Y-16686395D01*
X6407155Y-16686395D02*
X6397632Y-16695919D01*
X6607155Y-16810205D02*
X6588108Y-16800681D01*
X6588108Y-16800681D02*
X6578584Y-16791157D01*
X6578584Y-16791157D02*
X6569060Y-16772110D01*
X6569060Y-16772110D02*
X6569060Y-16714967D01*
X6569060Y-16714967D02*
X6578584Y-16695919D01*
X6578584Y-16695919D02*
X6588108Y-16686395D01*
X6588108Y-16686395D02*
X6607155Y-16676872D01*
X6607155Y-16676872D02*
X6635727Y-16676872D01*
X6635727Y-16676872D02*
X6654775Y-16686395D01*
X6654775Y-16686395D02*
X6664298Y-16695919D01*
X6664298Y-16695919D02*
X6673822Y-16714967D01*
X6673822Y-16714967D02*
X6673822Y-16772110D01*
X6673822Y-16772110D02*
X6664298Y-16791157D01*
X6664298Y-16791157D02*
X6654775Y-16800681D01*
X6654775Y-16800681D02*
X6635727Y-16810205D01*
X6635727Y-16810205D02*
X6607155Y-16810205D01*
X6788108Y-16810205D02*
X6769060Y-16800681D01*
X6769060Y-16800681D02*
X6759536Y-16781634D01*
X6759536Y-16781634D02*
X6759536Y-16610205D01*
X6940489Y-16800681D02*
X6921441Y-16810205D01*
X6921441Y-16810205D02*
X6883346Y-16810205D01*
X6883346Y-16810205D02*
X6864298Y-16800681D01*
X6864298Y-16800681D02*
X6854775Y-16781634D01*
X6854775Y-16781634D02*
X6854775Y-16705443D01*
X6854775Y-16705443D02*
X6864298Y-16686395D01*
X6864298Y-16686395D02*
X6883346Y-16676872D01*
X6883346Y-16676872D02*
X6921441Y-16676872D01*
X6921441Y-16676872D02*
X6940489Y-16686395D01*
X6940489Y-16686395D02*
X6950013Y-16705443D01*
X6950013Y-16705443D02*
X6950013Y-16724491D01*
X6950013Y-16724491D02*
X6854775Y-16743538D01*
X7026203Y-16800681D02*
X7045251Y-16810205D01*
X7045251Y-16810205D02*
X7083346Y-16810205D01*
X7083346Y-16810205D02*
X7102394Y-16800681D01*
X7102394Y-16800681D02*
X7111917Y-16781634D01*
X7111917Y-16781634D02*
X7111917Y-16772110D01*
X7111917Y-16772110D02*
X7102394Y-16753062D01*
X7102394Y-16753062D02*
X7083346Y-16743538D01*
X7083346Y-16743538D02*
X7054775Y-16743538D01*
X7054775Y-16743538D02*
X7035727Y-16734014D01*
X7035727Y-16734014D02*
X7026203Y-16714967D01*
X7026203Y-16714967D02*
X7026203Y-16705443D01*
X7026203Y-16705443D02*
X7035727Y-16686395D01*
X7035727Y-16686395D02*
X7054775Y-16676872D01*
X7054775Y-16676872D02*
X7083346Y-16676872D01*
X7083346Y-16676872D02*
X7102394Y-16686395D01*
X7178584Y-16886395D02*
X7188108Y-16876872D01*
X7188108Y-16876872D02*
X7207156Y-16848300D01*
X7207156Y-16848300D02*
X7216679Y-16829253D01*
X7216679Y-16829253D02*
X7226203Y-16800681D01*
X7226203Y-16800681D02*
X7235727Y-16753062D01*
X7235727Y-16753062D02*
X7235727Y-16714967D01*
X7235727Y-16714967D02*
X7226203Y-16667348D01*
X7226203Y-16667348D02*
X7216679Y-16638776D01*
X7216679Y-16638776D02*
X7207156Y-16619729D01*
X7207156Y-16619729D02*
X7188108Y-16591157D01*
X7188108Y-16591157D02*
X7178584Y-16581633D01*
X7540489Y-16886395D02*
X7530965Y-16876872D01*
X7530965Y-16876872D02*
X7511917Y-16848300D01*
X7511917Y-16848300D02*
X7502394Y-16829253D01*
X7502394Y-16829253D02*
X7492870Y-16800681D01*
X7492870Y-16800681D02*
X7483346Y-16753062D01*
X7483346Y-16753062D02*
X7483346Y-16714967D01*
X7483346Y-16714967D02*
X7492870Y-16667348D01*
X7492870Y-16667348D02*
X7502394Y-16638776D01*
X7502394Y-16638776D02*
X7511917Y-16619729D01*
X7511917Y-16619729D02*
X7530965Y-16591157D01*
X7530965Y-16591157D02*
X7540489Y-16581633D01*
X7616679Y-16676872D02*
X7616679Y-16810205D01*
X7616679Y-16695919D02*
X7626203Y-16686395D01*
X7626203Y-16686395D02*
X7645251Y-16676872D01*
X7645251Y-16676872D02*
X7673822Y-16676872D01*
X7673822Y-16676872D02*
X7692870Y-16686395D01*
X7692870Y-16686395D02*
X7702394Y-16705443D01*
X7702394Y-16705443D02*
X7702394Y-16810205D01*
X7826203Y-16810205D02*
X7807156Y-16800681D01*
X7807156Y-16800681D02*
X7797632Y-16791157D01*
X7797632Y-16791157D02*
X7788108Y-16772110D01*
X7788108Y-16772110D02*
X7788108Y-16714967D01*
X7788108Y-16714967D02*
X7797632Y-16695919D01*
X7797632Y-16695919D02*
X7807156Y-16686395D01*
X7807156Y-16686395D02*
X7826203Y-16676872D01*
X7826203Y-16676872D02*
X7854775Y-16676872D01*
X7854775Y-16676872D02*
X7873822Y-16686395D01*
X7873822Y-16686395D02*
X7883346Y-16695919D01*
X7883346Y-16695919D02*
X7892870Y-16714967D01*
X7892870Y-16714967D02*
X7892870Y-16772110D01*
X7892870Y-16772110D02*
X7883346Y-16791157D01*
X7883346Y-16791157D02*
X7873822Y-16800681D01*
X7873822Y-16800681D02*
X7854775Y-16810205D01*
X7854775Y-16810205D02*
X7826203Y-16810205D01*
X7950013Y-16676872D02*
X8026203Y-16676872D01*
X7978584Y-16610205D02*
X7978584Y-16781634D01*
X7978584Y-16781634D02*
X7988108Y-16800681D01*
X7988108Y-16800681D02*
X8007156Y-16810205D01*
X8007156Y-16810205D02*
X8026203Y-16810205D01*
X8245251Y-16676872D02*
X8245251Y-16876872D01*
X8245251Y-16686395D02*
X8264298Y-16676872D01*
X8264298Y-16676872D02*
X8302394Y-16676872D01*
X8302394Y-16676872D02*
X8321441Y-16686395D01*
X8321441Y-16686395D02*
X8330965Y-16695919D01*
X8330965Y-16695919D02*
X8340489Y-16714967D01*
X8340489Y-16714967D02*
X8340489Y-16772110D01*
X8340489Y-16772110D02*
X8330965Y-16791157D01*
X8330965Y-16791157D02*
X8321441Y-16800681D01*
X8321441Y-16800681D02*
X8302394Y-16810205D01*
X8302394Y-16810205D02*
X8264298Y-16810205D01*
X8264298Y-16810205D02*
X8245251Y-16800681D01*
X8454775Y-16810205D02*
X8435727Y-16800681D01*
X8435727Y-16800681D02*
X8426203Y-16781634D01*
X8426203Y-16781634D02*
X8426203Y-16610205D01*
X8616680Y-16810205D02*
X8616680Y-16705443D01*
X8616680Y-16705443D02*
X8607156Y-16686395D01*
X8607156Y-16686395D02*
X8588108Y-16676872D01*
X8588108Y-16676872D02*
X8550013Y-16676872D01*
X8550013Y-16676872D02*
X8530965Y-16686395D01*
X8616680Y-16800681D02*
X8597632Y-16810205D01*
X8597632Y-16810205D02*
X8550013Y-16810205D01*
X8550013Y-16810205D02*
X8530965Y-16800681D01*
X8530965Y-16800681D02*
X8521441Y-16781634D01*
X8521441Y-16781634D02*
X8521441Y-16762586D01*
X8521441Y-16762586D02*
X8530965Y-16743538D01*
X8530965Y-16743538D02*
X8550013Y-16734014D01*
X8550013Y-16734014D02*
X8597632Y-16734014D01*
X8597632Y-16734014D02*
X8616680Y-16724491D01*
X8683346Y-16676872D02*
X8759537Y-16676872D01*
X8711918Y-16610205D02*
X8711918Y-16781634D01*
X8711918Y-16781634D02*
X8721441Y-16800681D01*
X8721441Y-16800681D02*
X8740489Y-16810205D01*
X8740489Y-16810205D02*
X8759537Y-16810205D01*
X8902394Y-16800681D02*
X8883346Y-16810205D01*
X8883346Y-16810205D02*
X8845251Y-16810205D01*
X8845251Y-16810205D02*
X8826203Y-16800681D01*
X8826203Y-16800681D02*
X8816680Y-16781634D01*
X8816680Y-16781634D02*
X8816680Y-16705443D01*
X8816680Y-16705443D02*
X8826203Y-16686395D01*
X8826203Y-16686395D02*
X8845251Y-16676872D01*
X8845251Y-16676872D02*
X8883346Y-16676872D01*
X8883346Y-16676872D02*
X8902394Y-16686395D01*
X8902394Y-16686395D02*
X8911918Y-16705443D01*
X8911918Y-16705443D02*
X8911918Y-16724491D01*
X8911918Y-16724491D02*
X8816680Y-16743538D01*
X9083346Y-16810205D02*
X9083346Y-16610205D01*
X9083346Y-16800681D02*
X9064299Y-16810205D01*
X9064299Y-16810205D02*
X9026203Y-16810205D01*
X9026203Y-16810205D02*
X9007156Y-16800681D01*
X9007156Y-16800681D02*
X8997632Y-16791157D01*
X8997632Y-16791157D02*
X8988108Y-16772110D01*
X8988108Y-16772110D02*
X8988108Y-16714967D01*
X8988108Y-16714967D02*
X8997632Y-16695919D01*
X8997632Y-16695919D02*
X9007156Y-16686395D01*
X9007156Y-16686395D02*
X9026203Y-16676872D01*
X9026203Y-16676872D02*
X9064299Y-16676872D01*
X9064299Y-16676872D02*
X9083346Y-16686395D01*
X9159537Y-16886395D02*
X9169061Y-16876872D01*
X9169061Y-16876872D02*
X9188108Y-16848300D01*
X9188108Y-16848300D02*
X9197632Y-16829253D01*
X9197632Y-16829253D02*
X9207156Y-16800681D01*
X9207156Y-16800681D02*
X9216680Y-16753062D01*
X9216680Y-16753062D02*
X9216680Y-16714967D01*
X9216680Y-16714967D02*
X9207156Y-16667348D01*
X9207156Y-16667348D02*
X9197632Y-16638776D01*
X9197632Y-16638776D02*
X9188108Y-16619729D01*
X9188108Y-16619729D02*
X9169061Y-16591157D01*
X9169061Y-16591157D02*
X9159537Y-16581633D01*
X2022569Y-17013721D02*
G75*
G02*
X1822569Y-17013721I-100000J0D01*
G01*
X1822569Y-17013721D02*
G75*
G02*
X2022569Y-17013721I100000J0D01*
G01*
X2264298Y-16905205D02*
X2388108Y-16905205D01*
X2388108Y-16905205D02*
X2321441Y-16981395D01*
X2321441Y-16981395D02*
X2350012Y-16981395D01*
X2350012Y-16981395D02*
X2369060Y-16990919D01*
X2369060Y-16990919D02*
X2378584Y-17000443D01*
X2378584Y-17000443D02*
X2388108Y-17019491D01*
X2388108Y-17019491D02*
X2388108Y-17067110D01*
X2388108Y-17067110D02*
X2378584Y-17086157D01*
X2378584Y-17086157D02*
X2369060Y-17095681D01*
X2369060Y-17095681D02*
X2350012Y-17105205D01*
X2350012Y-17105205D02*
X2292869Y-17105205D01*
X2292869Y-17105205D02*
X2273822Y-17095681D01*
X2273822Y-17095681D02*
X2264298Y-17086157D01*
X2473822Y-17086157D02*
X2483346Y-17095681D01*
X2483346Y-17095681D02*
X2473822Y-17105205D01*
X2473822Y-17105205D02*
X2464298Y-17095681D01*
X2464298Y-17095681D02*
X2473822Y-17086157D01*
X2473822Y-17086157D02*
X2473822Y-17105205D01*
X2607155Y-16905205D02*
X2626203Y-16905205D01*
X2626203Y-16905205D02*
X2645250Y-16914729D01*
X2645250Y-16914729D02*
X2654774Y-16924253D01*
X2654774Y-16924253D02*
X2664298Y-16943300D01*
X2664298Y-16943300D02*
X2673822Y-16981395D01*
X2673822Y-16981395D02*
X2673822Y-17029015D01*
X2673822Y-17029015D02*
X2664298Y-17067110D01*
X2664298Y-17067110D02*
X2654774Y-17086157D01*
X2654774Y-17086157D02*
X2645250Y-17095681D01*
X2645250Y-17095681D02*
X2626203Y-17105205D01*
X2626203Y-17105205D02*
X2607155Y-17105205D01*
X2607155Y-17105205D02*
X2588108Y-17095681D01*
X2588108Y-17095681D02*
X2578584Y-17086157D01*
X2578584Y-17086157D02*
X2569060Y-17067110D01*
X2569060Y-17067110D02*
X2559536Y-17029015D01*
X2559536Y-17029015D02*
X2559536Y-16981395D01*
X2559536Y-16981395D02*
X2569060Y-16943300D01*
X2569060Y-16943300D02*
X2578584Y-16924253D01*
X2578584Y-16924253D02*
X2588108Y-16914729D01*
X2588108Y-16914729D02*
X2607155Y-16905205D01*
X2845250Y-16971872D02*
X2845250Y-17105205D01*
X2797631Y-16895681D02*
X2750012Y-17038538D01*
X2750012Y-17038538D02*
X2873822Y-17038538D01*
X2978584Y-16990919D02*
X2959536Y-16981395D01*
X2959536Y-16981395D02*
X2950012Y-16971872D01*
X2950012Y-16971872D02*
X2940488Y-16952824D01*
X2940488Y-16952824D02*
X2940488Y-16943300D01*
X2940488Y-16943300D02*
X2950012Y-16924253D01*
X2950012Y-16924253D02*
X2959536Y-16914729D01*
X2959536Y-16914729D02*
X2978584Y-16905205D01*
X2978584Y-16905205D02*
X3016679Y-16905205D01*
X3016679Y-16905205D02*
X3035727Y-16914729D01*
X3035727Y-16914729D02*
X3045250Y-16924253D01*
X3045250Y-16924253D02*
X3054774Y-16943300D01*
X3054774Y-16943300D02*
X3054774Y-16952824D01*
X3054774Y-16952824D02*
X3045250Y-16971872D01*
X3045250Y-16971872D02*
X3035727Y-16981395D01*
X3035727Y-16981395D02*
X3016679Y-16990919D01*
X3016679Y-16990919D02*
X2978584Y-16990919D01*
X2978584Y-16990919D02*
X2959536Y-17000443D01*
X2959536Y-17000443D02*
X2950012Y-17009967D01*
X2950012Y-17009967D02*
X2940488Y-17029015D01*
X2940488Y-17029015D02*
X2940488Y-17067110D01*
X2940488Y-17067110D02*
X2950012Y-17086157D01*
X2950012Y-17086157D02*
X2959536Y-17095681D01*
X2959536Y-17095681D02*
X2978584Y-17105205D01*
X2978584Y-17105205D02*
X3016679Y-17105205D01*
X3016679Y-17105205D02*
X3035727Y-17095681D01*
X3035727Y-17095681D02*
X3045250Y-17086157D01*
X3045250Y-17086157D02*
X3054774Y-17067110D01*
X3054774Y-17067110D02*
X3054774Y-17029015D01*
X3054774Y-17029015D02*
X3045250Y-17009967D01*
X3045250Y-17009967D02*
X3035727Y-17000443D01*
X3035727Y-17000443D02*
X3016679Y-16990919D01*
X3140488Y-17105205D02*
X3140488Y-16971872D01*
X3140488Y-16990919D02*
X3150012Y-16981395D01*
X3150012Y-16981395D02*
X3169060Y-16971872D01*
X3169060Y-16971872D02*
X3197631Y-16971872D01*
X3197631Y-16971872D02*
X3216679Y-16981395D01*
X3216679Y-16981395D02*
X3226203Y-17000443D01*
X3226203Y-17000443D02*
X3226203Y-17105205D01*
X3226203Y-17000443D02*
X3235727Y-16981395D01*
X3235727Y-16981395D02*
X3254774Y-16971872D01*
X3254774Y-16971872D02*
X3283346Y-16971872D01*
X3283346Y-16971872D02*
X3302393Y-16981395D01*
X3302393Y-16981395D02*
X3311917Y-17000443D01*
X3311917Y-17000443D02*
X3311917Y-17105205D01*
X3407155Y-17105205D02*
X3407155Y-16971872D01*
X3407155Y-16990919D02*
X3416679Y-16981395D01*
X3416679Y-16981395D02*
X3435727Y-16971872D01*
X3435727Y-16971872D02*
X3464298Y-16971872D01*
X3464298Y-16971872D02*
X3483346Y-16981395D01*
X3483346Y-16981395D02*
X3492869Y-17000443D01*
X3492869Y-17000443D02*
X3492869Y-17105205D01*
X3492869Y-17000443D02*
X3502393Y-16981395D01*
X3502393Y-16981395D02*
X3521441Y-16971872D01*
X3521441Y-16971872D02*
X3550012Y-16971872D01*
X3550012Y-16971872D02*
X3569060Y-16981395D01*
X3569060Y-16981395D02*
X3578584Y-17000443D01*
X3578584Y-17000443D02*
X3578584Y-17105205D01*
X3969060Y-16895681D02*
X3797631Y-17152824D01*
X4226203Y-16905205D02*
X4245251Y-16905205D01*
X4245251Y-16905205D02*
X4264298Y-16914729D01*
X4264298Y-16914729D02*
X4273822Y-16924253D01*
X4273822Y-16924253D02*
X4283346Y-16943300D01*
X4283346Y-16943300D02*
X4292870Y-16981395D01*
X4292870Y-16981395D02*
X4292870Y-17029015D01*
X4292870Y-17029015D02*
X4283346Y-17067110D01*
X4283346Y-17067110D02*
X4273822Y-17086157D01*
X4273822Y-17086157D02*
X4264298Y-17095681D01*
X4264298Y-17095681D02*
X4245251Y-17105205D01*
X4245251Y-17105205D02*
X4226203Y-17105205D01*
X4226203Y-17105205D02*
X4207155Y-17095681D01*
X4207155Y-17095681D02*
X4197632Y-17086157D01*
X4197632Y-17086157D02*
X4188108Y-17067110D01*
X4188108Y-17067110D02*
X4178584Y-17029015D01*
X4178584Y-17029015D02*
X4178584Y-16981395D01*
X4178584Y-16981395D02*
X4188108Y-16943300D01*
X4188108Y-16943300D02*
X4197632Y-16924253D01*
X4197632Y-16924253D02*
X4207155Y-16914729D01*
X4207155Y-16914729D02*
X4226203Y-16905205D01*
X4378584Y-17086157D02*
X4388108Y-17095681D01*
X4388108Y-17095681D02*
X4378584Y-17105205D01*
X4378584Y-17105205D02*
X4369060Y-17095681D01*
X4369060Y-17095681D02*
X4378584Y-17086157D01*
X4378584Y-17086157D02*
X4378584Y-17105205D01*
X4578584Y-17105205D02*
X4464298Y-17105205D01*
X4521441Y-17105205D02*
X4521441Y-16905205D01*
X4521441Y-16905205D02*
X4502393Y-16933776D01*
X4502393Y-16933776D02*
X4483346Y-16952824D01*
X4483346Y-16952824D02*
X4464298Y-16962348D01*
X4654774Y-16924253D02*
X4664298Y-16914729D01*
X4664298Y-16914729D02*
X4683346Y-16905205D01*
X4683346Y-16905205D02*
X4730965Y-16905205D01*
X4730965Y-16905205D02*
X4750013Y-16914729D01*
X4750013Y-16914729D02*
X4759536Y-16924253D01*
X4759536Y-16924253D02*
X4769060Y-16943300D01*
X4769060Y-16943300D02*
X4769060Y-16962348D01*
X4769060Y-16962348D02*
X4759536Y-16990919D01*
X4759536Y-16990919D02*
X4645251Y-17105205D01*
X4645251Y-17105205D02*
X4769060Y-17105205D01*
X4892870Y-16905205D02*
X4911917Y-16905205D01*
X4911917Y-16905205D02*
X4930965Y-16914729D01*
X4930965Y-16914729D02*
X4940489Y-16924253D01*
X4940489Y-16924253D02*
X4950013Y-16943300D01*
X4950013Y-16943300D02*
X4959536Y-16981395D01*
X4959536Y-16981395D02*
X4959536Y-17029015D01*
X4959536Y-17029015D02*
X4950013Y-17067110D01*
X4950013Y-17067110D02*
X4940489Y-17086157D01*
X4940489Y-17086157D02*
X4930965Y-17095681D01*
X4930965Y-17095681D02*
X4911917Y-17105205D01*
X4911917Y-17105205D02*
X4892870Y-17105205D01*
X4892870Y-17105205D02*
X4873822Y-17095681D01*
X4873822Y-17095681D02*
X4864298Y-17086157D01*
X4864298Y-17086157D02*
X4854774Y-17067110D01*
X4854774Y-17067110D02*
X4845251Y-17029015D01*
X4845251Y-17029015D02*
X4845251Y-16981395D01*
X4845251Y-16981395D02*
X4854774Y-16943300D01*
X4854774Y-16943300D02*
X4864298Y-16924253D01*
X4864298Y-16924253D02*
X4873822Y-16914729D01*
X4873822Y-16914729D02*
X4892870Y-16905205D01*
X5083346Y-16905205D02*
X5102394Y-16905205D01*
X5102394Y-16905205D02*
X5121441Y-16914729D01*
X5121441Y-16914729D02*
X5130965Y-16924253D01*
X5130965Y-16924253D02*
X5140489Y-16943300D01*
X5140489Y-16943300D02*
X5150013Y-16981395D01*
X5150013Y-16981395D02*
X5150013Y-17029015D01*
X5150013Y-17029015D02*
X5140489Y-17067110D01*
X5140489Y-17067110D02*
X5130965Y-17086157D01*
X5130965Y-17086157D02*
X5121441Y-17095681D01*
X5121441Y-17095681D02*
X5102394Y-17105205D01*
X5102394Y-17105205D02*
X5083346Y-17105205D01*
X5083346Y-17105205D02*
X5064298Y-17095681D01*
X5064298Y-17095681D02*
X5054774Y-17086157D01*
X5054774Y-17086157D02*
X5045251Y-17067110D01*
X5045251Y-17067110D02*
X5035727Y-17029015D01*
X5035727Y-17029015D02*
X5035727Y-16981395D01*
X5035727Y-16981395D02*
X5045251Y-16943300D01*
X5045251Y-16943300D02*
X5054774Y-16924253D01*
X5054774Y-16924253D02*
X5064298Y-16914729D01*
X5064298Y-16914729D02*
X5083346Y-16905205D01*
X5226203Y-16905205D02*
X5226203Y-16943300D01*
X5302394Y-16905205D02*
X5302394Y-16943300D01*
X5597632Y-17181395D02*
X5588108Y-17171872D01*
X5588108Y-17171872D02*
X5569060Y-17143300D01*
X5569060Y-17143300D02*
X5559536Y-17124253D01*
X5559536Y-17124253D02*
X5550013Y-17095681D01*
X5550013Y-17095681D02*
X5540489Y-17048062D01*
X5540489Y-17048062D02*
X5540489Y-17009967D01*
X5540489Y-17009967D02*
X5550013Y-16962348D01*
X5550013Y-16962348D02*
X5559536Y-16933776D01*
X5559536Y-16933776D02*
X5569060Y-16914729D01*
X5569060Y-16914729D02*
X5588108Y-16886157D01*
X5588108Y-16886157D02*
X5597632Y-16876634D01*
X5778584Y-17105205D02*
X5664298Y-17105205D01*
X5721441Y-17105205D02*
X5721441Y-16905205D01*
X5721441Y-16905205D02*
X5702393Y-16933776D01*
X5702393Y-16933776D02*
X5683346Y-16952824D01*
X5683346Y-16952824D02*
X5664298Y-16962348D01*
X5854774Y-16924253D02*
X5864298Y-16914729D01*
X5864298Y-16914729D02*
X5883346Y-16905205D01*
X5883346Y-16905205D02*
X5930965Y-16905205D01*
X5930965Y-16905205D02*
X5950013Y-16914729D01*
X5950013Y-16914729D02*
X5959536Y-16924253D01*
X5959536Y-16924253D02*
X5969060Y-16943300D01*
X5969060Y-16943300D02*
X5969060Y-16962348D01*
X5969060Y-16962348D02*
X5959536Y-16990919D01*
X5959536Y-16990919D02*
X5845251Y-17105205D01*
X5845251Y-17105205D02*
X5969060Y-17105205D01*
X6207155Y-17105205D02*
X6207155Y-16905205D01*
X6292870Y-17105205D02*
X6292870Y-17000443D01*
X6292870Y-17000443D02*
X6283346Y-16981395D01*
X6283346Y-16981395D02*
X6264298Y-16971872D01*
X6264298Y-16971872D02*
X6235727Y-16971872D01*
X6235727Y-16971872D02*
X6216679Y-16981395D01*
X6216679Y-16981395D02*
X6207155Y-16990919D01*
X6416679Y-17105205D02*
X6397632Y-17095681D01*
X6397632Y-17095681D02*
X6388108Y-17086157D01*
X6388108Y-17086157D02*
X6378584Y-17067110D01*
X6378584Y-17067110D02*
X6378584Y-17009967D01*
X6378584Y-17009967D02*
X6388108Y-16990919D01*
X6388108Y-16990919D02*
X6397632Y-16981395D01*
X6397632Y-16981395D02*
X6416679Y-16971872D01*
X6416679Y-16971872D02*
X6445251Y-16971872D01*
X6445251Y-16971872D02*
X6464298Y-16981395D01*
X6464298Y-16981395D02*
X6473822Y-16990919D01*
X6473822Y-16990919D02*
X6483346Y-17009967D01*
X6483346Y-17009967D02*
X6483346Y-17067110D01*
X6483346Y-17067110D02*
X6473822Y-17086157D01*
X6473822Y-17086157D02*
X6464298Y-17095681D01*
X6464298Y-17095681D02*
X6445251Y-17105205D01*
X6445251Y-17105205D02*
X6416679Y-17105205D01*
X6597632Y-17105205D02*
X6578584Y-17095681D01*
X6578584Y-17095681D02*
X6569060Y-17076634D01*
X6569060Y-17076634D02*
X6569060Y-16905205D01*
X6750013Y-17095681D02*
X6730965Y-17105205D01*
X6730965Y-17105205D02*
X6692870Y-17105205D01*
X6692870Y-17105205D02*
X6673822Y-17095681D01*
X6673822Y-17095681D02*
X6664298Y-17076634D01*
X6664298Y-17076634D02*
X6664298Y-17000443D01*
X6664298Y-17000443D02*
X6673822Y-16981395D01*
X6673822Y-16981395D02*
X6692870Y-16971872D01*
X6692870Y-16971872D02*
X6730965Y-16971872D01*
X6730965Y-16971872D02*
X6750013Y-16981395D01*
X6750013Y-16981395D02*
X6759536Y-17000443D01*
X6759536Y-17000443D02*
X6759536Y-17019491D01*
X6759536Y-17019491D02*
X6664298Y-17038538D01*
X6835727Y-17095681D02*
X6854775Y-17105205D01*
X6854775Y-17105205D02*
X6892870Y-17105205D01*
X6892870Y-17105205D02*
X6911917Y-17095681D01*
X6911917Y-17095681D02*
X6921441Y-17076634D01*
X6921441Y-17076634D02*
X6921441Y-17067110D01*
X6921441Y-17067110D02*
X6911917Y-17048062D01*
X6911917Y-17048062D02*
X6892870Y-17038538D01*
X6892870Y-17038538D02*
X6864298Y-17038538D01*
X6864298Y-17038538D02*
X6845251Y-17029015D01*
X6845251Y-17029015D02*
X6835727Y-17009967D01*
X6835727Y-17009967D02*
X6835727Y-17000443D01*
X6835727Y-17000443D02*
X6845251Y-16981395D01*
X6845251Y-16981395D02*
X6864298Y-16971872D01*
X6864298Y-16971872D02*
X6892870Y-16971872D01*
X6892870Y-16971872D02*
X6911917Y-16981395D01*
X6988108Y-17181395D02*
X6997632Y-17171872D01*
X6997632Y-17171872D02*
X7016679Y-17143300D01*
X7016679Y-17143300D02*
X7026203Y-17124253D01*
X7026203Y-17124253D02*
X7035727Y-17095681D01*
X7035727Y-17095681D02*
X7045251Y-17048062D01*
X7045251Y-17048062D02*
X7045251Y-17009967D01*
X7045251Y-17009967D02*
X7035727Y-16962348D01*
X7035727Y-16962348D02*
X7026203Y-16933776D01*
X7026203Y-16933776D02*
X7016679Y-16914729D01*
X7016679Y-16914729D02*
X6997632Y-16886157D01*
X6997632Y-16886157D02*
X6988108Y-16876634D01*
X7350013Y-17181395D02*
X7340489Y-17171872D01*
X7340489Y-17171872D02*
X7321441Y-17143300D01*
X7321441Y-17143300D02*
X7311917Y-17124253D01*
X7311917Y-17124253D02*
X7302394Y-17095681D01*
X7302394Y-17095681D02*
X7292870Y-17048062D01*
X7292870Y-17048062D02*
X7292870Y-17009967D01*
X7292870Y-17009967D02*
X7302394Y-16962348D01*
X7302394Y-16962348D02*
X7311917Y-16933776D01*
X7311917Y-16933776D02*
X7321441Y-16914729D01*
X7321441Y-16914729D02*
X7340489Y-16886157D01*
X7340489Y-16886157D02*
X7350013Y-16876634D01*
X7426203Y-16971872D02*
X7426203Y-17105205D01*
X7426203Y-16990919D02*
X7435727Y-16981395D01*
X7435727Y-16981395D02*
X7454775Y-16971872D01*
X7454775Y-16971872D02*
X7483346Y-16971872D01*
X7483346Y-16971872D02*
X7502394Y-16981395D01*
X7502394Y-16981395D02*
X7511917Y-17000443D01*
X7511917Y-17000443D02*
X7511917Y-17105205D01*
X7635727Y-17105205D02*
X7616679Y-17095681D01*
X7616679Y-17095681D02*
X7607156Y-17086157D01*
X7607156Y-17086157D02*
X7597632Y-17067110D01*
X7597632Y-17067110D02*
X7597632Y-17009967D01*
X7597632Y-17009967D02*
X7607156Y-16990919D01*
X7607156Y-16990919D02*
X7616679Y-16981395D01*
X7616679Y-16981395D02*
X7635727Y-16971872D01*
X7635727Y-16971872D02*
X7664298Y-16971872D01*
X7664298Y-16971872D02*
X7683346Y-16981395D01*
X7683346Y-16981395D02*
X7692870Y-16990919D01*
X7692870Y-16990919D02*
X7702394Y-17009967D01*
X7702394Y-17009967D02*
X7702394Y-17067110D01*
X7702394Y-17067110D02*
X7692870Y-17086157D01*
X7692870Y-17086157D02*
X7683346Y-17095681D01*
X7683346Y-17095681D02*
X7664298Y-17105205D01*
X7664298Y-17105205D02*
X7635727Y-17105205D01*
X7759537Y-16971872D02*
X7835727Y-16971872D01*
X7788108Y-16905205D02*
X7788108Y-17076634D01*
X7788108Y-17076634D02*
X7797632Y-17095681D01*
X7797632Y-17095681D02*
X7816679Y-17105205D01*
X7816679Y-17105205D02*
X7835727Y-17105205D01*
X8054775Y-16971872D02*
X8054775Y-17171872D01*
X8054775Y-16981395D02*
X8073822Y-16971872D01*
X8073822Y-16971872D02*
X8111918Y-16971872D01*
X8111918Y-16971872D02*
X8130965Y-16981395D01*
X8130965Y-16981395D02*
X8140489Y-16990919D01*
X8140489Y-16990919D02*
X8150013Y-17009967D01*
X8150013Y-17009967D02*
X8150013Y-17067110D01*
X8150013Y-17067110D02*
X8140489Y-17086157D01*
X8140489Y-17086157D02*
X8130965Y-17095681D01*
X8130965Y-17095681D02*
X8111918Y-17105205D01*
X8111918Y-17105205D02*
X8073822Y-17105205D01*
X8073822Y-17105205D02*
X8054775Y-17095681D01*
X8264298Y-17105205D02*
X8245251Y-17095681D01*
X8245251Y-17095681D02*
X8235727Y-17076634D01*
X8235727Y-17076634D02*
X8235727Y-16905205D01*
X8426203Y-17105205D02*
X8426203Y-17000443D01*
X8426203Y-17000443D02*
X8416680Y-16981395D01*
X8416680Y-16981395D02*
X8397632Y-16971872D01*
X8397632Y-16971872D02*
X8359537Y-16971872D01*
X8359537Y-16971872D02*
X8340489Y-16981395D01*
X8426203Y-17095681D02*
X8407156Y-17105205D01*
X8407156Y-17105205D02*
X8359537Y-17105205D01*
X8359537Y-17105205D02*
X8340489Y-17095681D01*
X8340489Y-17095681D02*
X8330965Y-17076634D01*
X8330965Y-17076634D02*
X8330965Y-17057586D01*
X8330965Y-17057586D02*
X8340489Y-17038538D01*
X8340489Y-17038538D02*
X8359537Y-17029015D01*
X8359537Y-17029015D02*
X8407156Y-17029015D01*
X8407156Y-17029015D02*
X8426203Y-17019491D01*
X8492870Y-16971872D02*
X8569060Y-16971872D01*
X8521441Y-16905205D02*
X8521441Y-17076634D01*
X8521441Y-17076634D02*
X8530965Y-17095681D01*
X8530965Y-17095681D02*
X8550013Y-17105205D01*
X8550013Y-17105205D02*
X8569060Y-17105205D01*
X8711918Y-17095681D02*
X8692870Y-17105205D01*
X8692870Y-17105205D02*
X8654775Y-17105205D01*
X8654775Y-17105205D02*
X8635727Y-17095681D01*
X8635727Y-17095681D02*
X8626203Y-17076634D01*
X8626203Y-17076634D02*
X8626203Y-17000443D01*
X8626203Y-17000443D02*
X8635727Y-16981395D01*
X8635727Y-16981395D02*
X8654775Y-16971872D01*
X8654775Y-16971872D02*
X8692870Y-16971872D01*
X8692870Y-16971872D02*
X8711918Y-16981395D01*
X8711918Y-16981395D02*
X8721441Y-17000443D01*
X8721441Y-17000443D02*
X8721441Y-17019491D01*
X8721441Y-17019491D02*
X8626203Y-17038538D01*
X8892870Y-17105205D02*
X8892870Y-16905205D01*
X8892870Y-17095681D02*
X8873822Y-17105205D01*
X8873822Y-17105205D02*
X8835727Y-17105205D01*
X8835727Y-17105205D02*
X8816680Y-17095681D01*
X8816680Y-17095681D02*
X8807156Y-17086157D01*
X8807156Y-17086157D02*
X8797632Y-17067110D01*
X8797632Y-17067110D02*
X8797632Y-17009967D01*
X8797632Y-17009967D02*
X8807156Y-16990919D01*
X8807156Y-16990919D02*
X8816680Y-16981395D01*
X8816680Y-16981395D02*
X8835727Y-16971872D01*
X8835727Y-16971872D02*
X8873822Y-16971872D01*
X8873822Y-16971872D02*
X8892870Y-16981395D01*
X8969061Y-17181395D02*
X8978584Y-17171872D01*
X8978584Y-17171872D02*
X8997632Y-17143300D01*
X8997632Y-17143300D02*
X9007156Y-17124253D01*
X9007156Y-17124253D02*
X9016680Y-17095681D01*
X9016680Y-17095681D02*
X9026203Y-17048062D01*
X9026203Y-17048062D02*
X9026203Y-17009967D01*
X9026203Y-17009967D02*
X9016680Y-16962348D01*
X9016680Y-16962348D02*
X9007156Y-16933776D01*
X9007156Y-16933776D02*
X8997632Y-16914729D01*
X8997632Y-16914729D02*
X8978584Y-16886157D01*
X8978584Y-16886157D02*
X8969061Y-16876634D01*
X1922569Y-17233721D02*
X1922569Y-17433721D01*
X1822569Y-17333721D02*
X2022569Y-17333721D01*
X2264298Y-17225205D02*
X2388108Y-17225205D01*
X2388108Y-17225205D02*
X2321441Y-17301395D01*
X2321441Y-17301395D02*
X2350012Y-17301395D01*
X2350012Y-17301395D02*
X2369060Y-17310919D01*
X2369060Y-17310919D02*
X2378584Y-17320443D01*
X2378584Y-17320443D02*
X2388108Y-17339491D01*
X2388108Y-17339491D02*
X2388108Y-17387110D01*
X2388108Y-17387110D02*
X2378584Y-17406157D01*
X2378584Y-17406157D02*
X2369060Y-17415681D01*
X2369060Y-17415681D02*
X2350012Y-17425205D01*
X2350012Y-17425205D02*
X2292869Y-17425205D01*
X2292869Y-17425205D02*
X2273822Y-17415681D01*
X2273822Y-17415681D02*
X2264298Y-17406157D01*
X2473822Y-17406157D02*
X2483346Y-17415681D01*
X2483346Y-17415681D02*
X2473822Y-17425205D01*
X2473822Y-17425205D02*
X2464298Y-17415681D01*
X2464298Y-17415681D02*
X2473822Y-17406157D01*
X2473822Y-17406157D02*
X2473822Y-17425205D01*
X2578584Y-17425205D02*
X2616679Y-17425205D01*
X2616679Y-17425205D02*
X2635727Y-17415681D01*
X2635727Y-17415681D02*
X2645250Y-17406157D01*
X2645250Y-17406157D02*
X2664298Y-17377586D01*
X2664298Y-17377586D02*
X2673822Y-17339491D01*
X2673822Y-17339491D02*
X2673822Y-17263300D01*
X2673822Y-17263300D02*
X2664298Y-17244253D01*
X2664298Y-17244253D02*
X2654774Y-17234729D01*
X2654774Y-17234729D02*
X2635727Y-17225205D01*
X2635727Y-17225205D02*
X2597631Y-17225205D01*
X2597631Y-17225205D02*
X2578584Y-17234729D01*
X2578584Y-17234729D02*
X2569060Y-17244253D01*
X2569060Y-17244253D02*
X2559536Y-17263300D01*
X2559536Y-17263300D02*
X2559536Y-17310919D01*
X2559536Y-17310919D02*
X2569060Y-17329967D01*
X2569060Y-17329967D02*
X2578584Y-17339491D01*
X2578584Y-17339491D02*
X2597631Y-17349015D01*
X2597631Y-17349015D02*
X2635727Y-17349015D01*
X2635727Y-17349015D02*
X2654774Y-17339491D01*
X2654774Y-17339491D02*
X2664298Y-17329967D01*
X2664298Y-17329967D02*
X2673822Y-17310919D01*
X2788108Y-17310919D02*
X2769060Y-17301395D01*
X2769060Y-17301395D02*
X2759536Y-17291872D01*
X2759536Y-17291872D02*
X2750012Y-17272824D01*
X2750012Y-17272824D02*
X2750012Y-17263300D01*
X2750012Y-17263300D02*
X2759536Y-17244253D01*
X2759536Y-17244253D02*
X2769060Y-17234729D01*
X2769060Y-17234729D02*
X2788108Y-17225205D01*
X2788108Y-17225205D02*
X2826203Y-17225205D01*
X2826203Y-17225205D02*
X2845250Y-17234729D01*
X2845250Y-17234729D02*
X2854774Y-17244253D01*
X2854774Y-17244253D02*
X2864298Y-17263300D01*
X2864298Y-17263300D02*
X2864298Y-17272824D01*
X2864298Y-17272824D02*
X2854774Y-17291872D01*
X2854774Y-17291872D02*
X2845250Y-17301395D01*
X2845250Y-17301395D02*
X2826203Y-17310919D01*
X2826203Y-17310919D02*
X2788108Y-17310919D01*
X2788108Y-17310919D02*
X2769060Y-17320443D01*
X2769060Y-17320443D02*
X2759536Y-17329967D01*
X2759536Y-17329967D02*
X2750012Y-17349015D01*
X2750012Y-17349015D02*
X2750012Y-17387110D01*
X2750012Y-17387110D02*
X2759536Y-17406157D01*
X2759536Y-17406157D02*
X2769060Y-17415681D01*
X2769060Y-17415681D02*
X2788108Y-17425205D01*
X2788108Y-17425205D02*
X2826203Y-17425205D01*
X2826203Y-17425205D02*
X2845250Y-17415681D01*
X2845250Y-17415681D02*
X2854774Y-17406157D01*
X2854774Y-17406157D02*
X2864298Y-17387110D01*
X2864298Y-17387110D02*
X2864298Y-17349015D01*
X2864298Y-17349015D02*
X2854774Y-17329967D01*
X2854774Y-17329967D02*
X2845250Y-17320443D01*
X2845250Y-17320443D02*
X2826203Y-17310919D01*
X2978584Y-17310919D02*
X2959536Y-17301395D01*
X2959536Y-17301395D02*
X2950012Y-17291872D01*
X2950012Y-17291872D02*
X2940488Y-17272824D01*
X2940488Y-17272824D02*
X2940488Y-17263300D01*
X2940488Y-17263300D02*
X2950012Y-17244253D01*
X2950012Y-17244253D02*
X2959536Y-17234729D01*
X2959536Y-17234729D02*
X2978584Y-17225205D01*
X2978584Y-17225205D02*
X3016679Y-17225205D01*
X3016679Y-17225205D02*
X3035727Y-17234729D01*
X3035727Y-17234729D02*
X3045250Y-17244253D01*
X3045250Y-17244253D02*
X3054774Y-17263300D01*
X3054774Y-17263300D02*
X3054774Y-17272824D01*
X3054774Y-17272824D02*
X3045250Y-17291872D01*
X3045250Y-17291872D02*
X3035727Y-17301395D01*
X3035727Y-17301395D02*
X3016679Y-17310919D01*
X3016679Y-17310919D02*
X2978584Y-17310919D01*
X2978584Y-17310919D02*
X2959536Y-17320443D01*
X2959536Y-17320443D02*
X2950012Y-17329967D01*
X2950012Y-17329967D02*
X2940488Y-17349015D01*
X2940488Y-17349015D02*
X2940488Y-17387110D01*
X2940488Y-17387110D02*
X2950012Y-17406157D01*
X2950012Y-17406157D02*
X2959536Y-17415681D01*
X2959536Y-17415681D02*
X2978584Y-17425205D01*
X2978584Y-17425205D02*
X3016679Y-17425205D01*
X3016679Y-17425205D02*
X3035727Y-17415681D01*
X3035727Y-17415681D02*
X3045250Y-17406157D01*
X3045250Y-17406157D02*
X3054774Y-17387110D01*
X3054774Y-17387110D02*
X3054774Y-17349015D01*
X3054774Y-17349015D02*
X3045250Y-17329967D01*
X3045250Y-17329967D02*
X3035727Y-17320443D01*
X3035727Y-17320443D02*
X3016679Y-17310919D01*
X3140488Y-17425205D02*
X3140488Y-17291872D01*
X3140488Y-17310919D02*
X3150012Y-17301395D01*
X3150012Y-17301395D02*
X3169060Y-17291872D01*
X3169060Y-17291872D02*
X3197631Y-17291872D01*
X3197631Y-17291872D02*
X3216679Y-17301395D01*
X3216679Y-17301395D02*
X3226203Y-17320443D01*
X3226203Y-17320443D02*
X3226203Y-17425205D01*
X3226203Y-17320443D02*
X3235727Y-17301395D01*
X3235727Y-17301395D02*
X3254774Y-17291872D01*
X3254774Y-17291872D02*
X3283346Y-17291872D01*
X3283346Y-17291872D02*
X3302393Y-17301395D01*
X3302393Y-17301395D02*
X3311917Y-17320443D01*
X3311917Y-17320443D02*
X3311917Y-17425205D01*
X3407155Y-17425205D02*
X3407155Y-17291872D01*
X3407155Y-17310919D02*
X3416679Y-17301395D01*
X3416679Y-17301395D02*
X3435727Y-17291872D01*
X3435727Y-17291872D02*
X3464298Y-17291872D01*
X3464298Y-17291872D02*
X3483346Y-17301395D01*
X3483346Y-17301395D02*
X3492869Y-17320443D01*
X3492869Y-17320443D02*
X3492869Y-17425205D01*
X3492869Y-17320443D02*
X3502393Y-17301395D01*
X3502393Y-17301395D02*
X3521441Y-17291872D01*
X3521441Y-17291872D02*
X3550012Y-17291872D01*
X3550012Y-17291872D02*
X3569060Y-17301395D01*
X3569060Y-17301395D02*
X3578584Y-17320443D01*
X3578584Y-17320443D02*
X3578584Y-17425205D01*
X3969060Y-17215681D02*
X3797631Y-17472824D01*
X4226203Y-17225205D02*
X4245251Y-17225205D01*
X4245251Y-17225205D02*
X4264298Y-17234729D01*
X4264298Y-17234729D02*
X4273822Y-17244253D01*
X4273822Y-17244253D02*
X4283346Y-17263300D01*
X4283346Y-17263300D02*
X4292870Y-17301395D01*
X4292870Y-17301395D02*
X4292870Y-17349015D01*
X4292870Y-17349015D02*
X4283346Y-17387110D01*
X4283346Y-17387110D02*
X4273822Y-17406157D01*
X4273822Y-17406157D02*
X4264298Y-17415681D01*
X4264298Y-17415681D02*
X4245251Y-17425205D01*
X4245251Y-17425205D02*
X4226203Y-17425205D01*
X4226203Y-17425205D02*
X4207155Y-17415681D01*
X4207155Y-17415681D02*
X4197632Y-17406157D01*
X4197632Y-17406157D02*
X4188108Y-17387110D01*
X4188108Y-17387110D02*
X4178584Y-17349015D01*
X4178584Y-17349015D02*
X4178584Y-17301395D01*
X4178584Y-17301395D02*
X4188108Y-17263300D01*
X4188108Y-17263300D02*
X4197632Y-17244253D01*
X4197632Y-17244253D02*
X4207155Y-17234729D01*
X4207155Y-17234729D02*
X4226203Y-17225205D01*
X4378584Y-17406157D02*
X4388108Y-17415681D01*
X4388108Y-17415681D02*
X4378584Y-17425205D01*
X4378584Y-17425205D02*
X4369060Y-17415681D01*
X4369060Y-17415681D02*
X4378584Y-17406157D01*
X4378584Y-17406157D02*
X4378584Y-17425205D01*
X4578584Y-17425205D02*
X4464298Y-17425205D01*
X4521441Y-17425205D02*
X4521441Y-17225205D01*
X4521441Y-17225205D02*
X4502393Y-17253776D01*
X4502393Y-17253776D02*
X4483346Y-17272824D01*
X4483346Y-17272824D02*
X4464298Y-17282348D01*
X4759536Y-17225205D02*
X4664298Y-17225205D01*
X4664298Y-17225205D02*
X4654774Y-17320443D01*
X4654774Y-17320443D02*
X4664298Y-17310919D01*
X4664298Y-17310919D02*
X4683346Y-17301395D01*
X4683346Y-17301395D02*
X4730965Y-17301395D01*
X4730965Y-17301395D02*
X4750013Y-17310919D01*
X4750013Y-17310919D02*
X4759536Y-17320443D01*
X4759536Y-17320443D02*
X4769060Y-17339491D01*
X4769060Y-17339491D02*
X4769060Y-17387110D01*
X4769060Y-17387110D02*
X4759536Y-17406157D01*
X4759536Y-17406157D02*
X4750013Y-17415681D01*
X4750013Y-17415681D02*
X4730965Y-17425205D01*
X4730965Y-17425205D02*
X4683346Y-17425205D01*
X4683346Y-17425205D02*
X4664298Y-17415681D01*
X4664298Y-17415681D02*
X4654774Y-17406157D01*
X4835727Y-17225205D02*
X4969060Y-17225205D01*
X4969060Y-17225205D02*
X4883346Y-17425205D01*
X5083346Y-17225205D02*
X5102394Y-17225205D01*
X5102394Y-17225205D02*
X5121441Y-17234729D01*
X5121441Y-17234729D02*
X5130965Y-17244253D01*
X5130965Y-17244253D02*
X5140489Y-17263300D01*
X5140489Y-17263300D02*
X5150013Y-17301395D01*
X5150013Y-17301395D02*
X5150013Y-17349015D01*
X5150013Y-17349015D02*
X5140489Y-17387110D01*
X5140489Y-17387110D02*
X5130965Y-17406157D01*
X5130965Y-17406157D02*
X5121441Y-17415681D01*
X5121441Y-17415681D02*
X5102394Y-17425205D01*
X5102394Y-17425205D02*
X5083346Y-17425205D01*
X5083346Y-17425205D02*
X5064298Y-17415681D01*
X5064298Y-17415681D02*
X5054774Y-17406157D01*
X5054774Y-17406157D02*
X5045251Y-17387110D01*
X5045251Y-17387110D02*
X5035727Y-17349015D01*
X5035727Y-17349015D02*
X5035727Y-17301395D01*
X5035727Y-17301395D02*
X5045251Y-17263300D01*
X5045251Y-17263300D02*
X5054774Y-17244253D01*
X5054774Y-17244253D02*
X5064298Y-17234729D01*
X5064298Y-17234729D02*
X5083346Y-17225205D01*
X5226203Y-17225205D02*
X5226203Y-17263300D01*
X5302394Y-17225205D02*
X5302394Y-17263300D01*
X5597632Y-17501395D02*
X5588108Y-17491872D01*
X5588108Y-17491872D02*
X5569060Y-17463300D01*
X5569060Y-17463300D02*
X5559536Y-17444253D01*
X5559536Y-17444253D02*
X5550013Y-17415681D01*
X5550013Y-17415681D02*
X5540489Y-17368062D01*
X5540489Y-17368062D02*
X5540489Y-17329967D01*
X5540489Y-17329967D02*
X5550013Y-17282348D01*
X5550013Y-17282348D02*
X5559536Y-17253776D01*
X5559536Y-17253776D02*
X5569060Y-17234729D01*
X5569060Y-17234729D02*
X5588108Y-17206157D01*
X5588108Y-17206157D02*
X5597632Y-17196634D01*
X5683346Y-17425205D02*
X5721441Y-17425205D01*
X5721441Y-17425205D02*
X5740489Y-17415681D01*
X5740489Y-17415681D02*
X5750013Y-17406157D01*
X5750013Y-17406157D02*
X5769060Y-17377586D01*
X5769060Y-17377586D02*
X5778584Y-17339491D01*
X5778584Y-17339491D02*
X5778584Y-17263300D01*
X5778584Y-17263300D02*
X5769060Y-17244253D01*
X5769060Y-17244253D02*
X5759536Y-17234729D01*
X5759536Y-17234729D02*
X5740489Y-17225205D01*
X5740489Y-17225205D02*
X5702393Y-17225205D01*
X5702393Y-17225205D02*
X5683346Y-17234729D01*
X5683346Y-17234729D02*
X5673822Y-17244253D01*
X5673822Y-17244253D02*
X5664298Y-17263300D01*
X5664298Y-17263300D02*
X5664298Y-17310919D01*
X5664298Y-17310919D02*
X5673822Y-17329967D01*
X5673822Y-17329967D02*
X5683346Y-17339491D01*
X5683346Y-17339491D02*
X5702393Y-17349015D01*
X5702393Y-17349015D02*
X5740489Y-17349015D01*
X5740489Y-17349015D02*
X5759536Y-17339491D01*
X5759536Y-17339491D02*
X5769060Y-17329967D01*
X5769060Y-17329967D02*
X5778584Y-17310919D01*
X5845251Y-17225205D02*
X5978584Y-17225205D01*
X5978584Y-17225205D02*
X5892870Y-17425205D01*
X6207155Y-17425205D02*
X6207155Y-17225205D01*
X6292870Y-17425205D02*
X6292870Y-17320443D01*
X6292870Y-17320443D02*
X6283346Y-17301395D01*
X6283346Y-17301395D02*
X6264298Y-17291872D01*
X6264298Y-17291872D02*
X6235727Y-17291872D01*
X6235727Y-17291872D02*
X6216679Y-17301395D01*
X6216679Y-17301395D02*
X6207155Y-17310919D01*
X6416679Y-17425205D02*
X6397632Y-17415681D01*
X6397632Y-17415681D02*
X6388108Y-17406157D01*
X6388108Y-17406157D02*
X6378584Y-17387110D01*
X6378584Y-17387110D02*
X6378584Y-17329967D01*
X6378584Y-17329967D02*
X6388108Y-17310919D01*
X6388108Y-17310919D02*
X6397632Y-17301395D01*
X6397632Y-17301395D02*
X6416679Y-17291872D01*
X6416679Y-17291872D02*
X6445251Y-17291872D01*
X6445251Y-17291872D02*
X6464298Y-17301395D01*
X6464298Y-17301395D02*
X6473822Y-17310919D01*
X6473822Y-17310919D02*
X6483346Y-17329967D01*
X6483346Y-17329967D02*
X6483346Y-17387110D01*
X6483346Y-17387110D02*
X6473822Y-17406157D01*
X6473822Y-17406157D02*
X6464298Y-17415681D01*
X6464298Y-17415681D02*
X6445251Y-17425205D01*
X6445251Y-17425205D02*
X6416679Y-17425205D01*
X6597632Y-17425205D02*
X6578584Y-17415681D01*
X6578584Y-17415681D02*
X6569060Y-17396634D01*
X6569060Y-17396634D02*
X6569060Y-17225205D01*
X6750013Y-17415681D02*
X6730965Y-17425205D01*
X6730965Y-17425205D02*
X6692870Y-17425205D01*
X6692870Y-17425205D02*
X6673822Y-17415681D01*
X6673822Y-17415681D02*
X6664298Y-17396634D01*
X6664298Y-17396634D02*
X6664298Y-17320443D01*
X6664298Y-17320443D02*
X6673822Y-17301395D01*
X6673822Y-17301395D02*
X6692870Y-17291872D01*
X6692870Y-17291872D02*
X6730965Y-17291872D01*
X6730965Y-17291872D02*
X6750013Y-17301395D01*
X6750013Y-17301395D02*
X6759536Y-17320443D01*
X6759536Y-17320443D02*
X6759536Y-17339491D01*
X6759536Y-17339491D02*
X6664298Y-17358538D01*
X6835727Y-17415681D02*
X6854775Y-17425205D01*
X6854775Y-17425205D02*
X6892870Y-17425205D01*
X6892870Y-17425205D02*
X6911917Y-17415681D01*
X6911917Y-17415681D02*
X6921441Y-17396634D01*
X6921441Y-17396634D02*
X6921441Y-17387110D01*
X6921441Y-17387110D02*
X6911917Y-17368062D01*
X6911917Y-17368062D02*
X6892870Y-17358538D01*
X6892870Y-17358538D02*
X6864298Y-17358538D01*
X6864298Y-17358538D02*
X6845251Y-17349015D01*
X6845251Y-17349015D02*
X6835727Y-17329967D01*
X6835727Y-17329967D02*
X6835727Y-17320443D01*
X6835727Y-17320443D02*
X6845251Y-17301395D01*
X6845251Y-17301395D02*
X6864298Y-17291872D01*
X6864298Y-17291872D02*
X6892870Y-17291872D01*
X6892870Y-17291872D02*
X6911917Y-17301395D01*
X6988108Y-17501395D02*
X6997632Y-17491872D01*
X6997632Y-17491872D02*
X7016679Y-17463300D01*
X7016679Y-17463300D02*
X7026203Y-17444253D01*
X7026203Y-17444253D02*
X7035727Y-17415681D01*
X7035727Y-17415681D02*
X7045251Y-17368062D01*
X7045251Y-17368062D02*
X7045251Y-17329967D01*
X7045251Y-17329967D02*
X7035727Y-17282348D01*
X7035727Y-17282348D02*
X7026203Y-17253776D01*
X7026203Y-17253776D02*
X7016679Y-17234729D01*
X7016679Y-17234729D02*
X6997632Y-17206157D01*
X6997632Y-17206157D02*
X6988108Y-17196634D01*
X7350013Y-17501395D02*
X7340489Y-17491872D01*
X7340489Y-17491872D02*
X7321441Y-17463300D01*
X7321441Y-17463300D02*
X7311917Y-17444253D01*
X7311917Y-17444253D02*
X7302394Y-17415681D01*
X7302394Y-17415681D02*
X7292870Y-17368062D01*
X7292870Y-17368062D02*
X7292870Y-17329967D01*
X7292870Y-17329967D02*
X7302394Y-17282348D01*
X7302394Y-17282348D02*
X7311917Y-17253776D01*
X7311917Y-17253776D02*
X7321441Y-17234729D01*
X7321441Y-17234729D02*
X7340489Y-17206157D01*
X7340489Y-17206157D02*
X7350013Y-17196634D01*
X7426203Y-17291872D02*
X7426203Y-17425205D01*
X7426203Y-17310919D02*
X7435727Y-17301395D01*
X7435727Y-17301395D02*
X7454775Y-17291872D01*
X7454775Y-17291872D02*
X7483346Y-17291872D01*
X7483346Y-17291872D02*
X7502394Y-17301395D01*
X7502394Y-17301395D02*
X7511917Y-17320443D01*
X7511917Y-17320443D02*
X7511917Y-17425205D01*
X7635727Y-17425205D02*
X7616679Y-17415681D01*
X7616679Y-17415681D02*
X7607156Y-17406157D01*
X7607156Y-17406157D02*
X7597632Y-17387110D01*
X7597632Y-17387110D02*
X7597632Y-17329967D01*
X7597632Y-17329967D02*
X7607156Y-17310919D01*
X7607156Y-17310919D02*
X7616679Y-17301395D01*
X7616679Y-17301395D02*
X7635727Y-17291872D01*
X7635727Y-17291872D02*
X7664298Y-17291872D01*
X7664298Y-17291872D02*
X7683346Y-17301395D01*
X7683346Y-17301395D02*
X7692870Y-17310919D01*
X7692870Y-17310919D02*
X7702394Y-17329967D01*
X7702394Y-17329967D02*
X7702394Y-17387110D01*
X7702394Y-17387110D02*
X7692870Y-17406157D01*
X7692870Y-17406157D02*
X7683346Y-17415681D01*
X7683346Y-17415681D02*
X7664298Y-17425205D01*
X7664298Y-17425205D02*
X7635727Y-17425205D01*
X7759537Y-17291872D02*
X7835727Y-17291872D01*
X7788108Y-17225205D02*
X7788108Y-17396634D01*
X7788108Y-17396634D02*
X7797632Y-17415681D01*
X7797632Y-17415681D02*
X7816679Y-17425205D01*
X7816679Y-17425205D02*
X7835727Y-17425205D01*
X8054775Y-17291872D02*
X8054775Y-17491872D01*
X8054775Y-17301395D02*
X8073822Y-17291872D01*
X8073822Y-17291872D02*
X8111918Y-17291872D01*
X8111918Y-17291872D02*
X8130965Y-17301395D01*
X8130965Y-17301395D02*
X8140489Y-17310919D01*
X8140489Y-17310919D02*
X8150013Y-17329967D01*
X8150013Y-17329967D02*
X8150013Y-17387110D01*
X8150013Y-17387110D02*
X8140489Y-17406157D01*
X8140489Y-17406157D02*
X8130965Y-17415681D01*
X8130965Y-17415681D02*
X8111918Y-17425205D01*
X8111918Y-17425205D02*
X8073822Y-17425205D01*
X8073822Y-17425205D02*
X8054775Y-17415681D01*
X8264298Y-17425205D02*
X8245251Y-17415681D01*
X8245251Y-17415681D02*
X8235727Y-17396634D01*
X8235727Y-17396634D02*
X8235727Y-17225205D01*
X8426203Y-17425205D02*
X8426203Y-17320443D01*
X8426203Y-17320443D02*
X8416680Y-17301395D01*
X8416680Y-17301395D02*
X8397632Y-17291872D01*
X8397632Y-17291872D02*
X8359537Y-17291872D01*
X8359537Y-17291872D02*
X8340489Y-17301395D01*
X8426203Y-17415681D02*
X8407156Y-17425205D01*
X8407156Y-17425205D02*
X8359537Y-17425205D01*
X8359537Y-17425205D02*
X8340489Y-17415681D01*
X8340489Y-17415681D02*
X8330965Y-17396634D01*
X8330965Y-17396634D02*
X8330965Y-17377586D01*
X8330965Y-17377586D02*
X8340489Y-17358538D01*
X8340489Y-17358538D02*
X8359537Y-17349015D01*
X8359537Y-17349015D02*
X8407156Y-17349015D01*
X8407156Y-17349015D02*
X8426203Y-17339491D01*
X8492870Y-17291872D02*
X8569060Y-17291872D01*
X8521441Y-17225205D02*
X8521441Y-17396634D01*
X8521441Y-17396634D02*
X8530965Y-17415681D01*
X8530965Y-17415681D02*
X8550013Y-17425205D01*
X8550013Y-17425205D02*
X8569060Y-17425205D01*
X8711918Y-17415681D02*
X8692870Y-17425205D01*
X8692870Y-17425205D02*
X8654775Y-17425205D01*
X8654775Y-17425205D02*
X8635727Y-17415681D01*
X8635727Y-17415681D02*
X8626203Y-17396634D01*
X8626203Y-17396634D02*
X8626203Y-17320443D01*
X8626203Y-17320443D02*
X8635727Y-17301395D01*
X8635727Y-17301395D02*
X8654775Y-17291872D01*
X8654775Y-17291872D02*
X8692870Y-17291872D01*
X8692870Y-17291872D02*
X8711918Y-17301395D01*
X8711918Y-17301395D02*
X8721441Y-17320443D01*
X8721441Y-17320443D02*
X8721441Y-17339491D01*
X8721441Y-17339491D02*
X8626203Y-17358538D01*
X8892870Y-17425205D02*
X8892870Y-17225205D01*
X8892870Y-17415681D02*
X8873822Y-17425205D01*
X8873822Y-17425205D02*
X8835727Y-17425205D01*
X8835727Y-17425205D02*
X8816680Y-17415681D01*
X8816680Y-17415681D02*
X8807156Y-17406157D01*
X8807156Y-17406157D02*
X8797632Y-17387110D01*
X8797632Y-17387110D02*
X8797632Y-17329967D01*
X8797632Y-17329967D02*
X8807156Y-17310919D01*
X8807156Y-17310919D02*
X8816680Y-17301395D01*
X8816680Y-17301395D02*
X8835727Y-17291872D01*
X8835727Y-17291872D02*
X8873822Y-17291872D01*
X8873822Y-17291872D02*
X8892870Y-17301395D01*
X8969061Y-17501395D02*
X8978584Y-17491872D01*
X8978584Y-17491872D02*
X8997632Y-17463300D01*
X8997632Y-17463300D02*
X9007156Y-17444253D01*
X9007156Y-17444253D02*
X9016680Y-17415681D01*
X9016680Y-17415681D02*
X9026203Y-17368062D01*
X9026203Y-17368062D02*
X9026203Y-17329967D01*
X9026203Y-17329967D02*
X9016680Y-17282348D01*
X9016680Y-17282348D02*
X9007156Y-17253776D01*
X9007156Y-17253776D02*
X8997632Y-17234729D01*
X8997632Y-17234729D02*
X8978584Y-17206157D01*
X8978584Y-17206157D02*
X8969061Y-17196634D01*
M02*
