M48
; DRILL file {KiCad 9.0.5} date 2026-01-22T23:22:43-0800
; FORMAT={-:-/ absolute / metric / decimal}
; #@! TF.CreationDate,2026-01-22T23:22:43-08:00
; #@! TF.GenerationSoftware,Kicad,Pcbnew,9.0.5
; #@! TF.FileFunction,NonPlated,1,4,NPTH
FMAT,2
METRIC
; #@! TA.AperFunction,NonPlated,NPTH,ComponentDrill
T1C1.750
; #@! TA.AperFunction,NonPlated,NPTH,ComponentDrill
T2C3.048
; #@! TA.AperFunction,NonPlated,NPTH,ComponentDrill
T3C3.988
%
G90
G05
T1
X33.02Y-38.1
X33.02Y-66.675
X33.02Y-142.875
X43.18Y-38.1
X43.18Y-66.675
X43.18Y-142.875
X52.07Y-38.1
X52.07Y-66.675
X52.07Y-123.825
X52.07Y-142.875
X62.23Y-38.1
X62.23Y-66.675
X62.23Y-123.825
X62.23Y-142.875
X71.12Y-38.1
X71.12Y-66.675
X71.12Y-142.875
X81.28Y-38.1
X81.28Y-66.675
X81.28Y-142.875
X94.932Y-38.1
X97.314Y-142.875
X99.695Y-85.725
X104.457Y-66.675
X105.093Y-38.1
X106.839Y-104.775
X107.474Y-142.875
X109.855Y-85.725
X111.601Y-123.825
X113.983Y-38.1
X114.617Y-66.675
X116.999Y-104.775
X121.126Y-142.875
X121.761Y-123.825
X123.507Y-85.725
X124.142Y-38.1
X131.286Y-142.875
X133.032Y-38.1
X133.032Y-66.675
X133.667Y-85.725
X137.795Y-104.775
X142.558Y-85.725
X143.192Y-38.1
X143.192Y-66.675
X144.939Y-142.875
X147.32Y-123.825
X147.955Y-104.775
X152.082Y-38.1
X152.082Y-66.675
X152.718Y-85.725
X155.099Y-142.875
X156.845Y-104.775
X157.48Y-123.825
X161.607Y-85.725
X162.243Y-38.1
X162.243Y-66.675
X166.37Y-123.825
X167.005Y-104.775
X171.132Y-66.675
X171.132Y-142.875
X171.767Y-85.725
X175.895Y-104.775
X176.53Y-123.825
X180.657Y-38.1
X180.657Y-85.725
X181.292Y-66.675
X181.292Y-142.875
X185.42Y-123.825
X186.055Y-104.775
X190.183Y-66.675
X190.817Y-38.1
X190.817Y-85.725
X194.945Y-104.775
X195.58Y-123.825
X199.707Y-38.1
X199.707Y-85.725
X200.343Y-66.675
X204.47Y-123.825
X205.105Y-104.775
X209.232Y-66.675
X209.867Y-38.1
X209.867Y-85.725
X213.995Y-104.775
X213.995Y-142.875
X214.63Y-123.825
X218.757Y-38.1
X218.757Y-85.725
X219.392Y-66.675
X223.52Y-123.825
X224.155Y-104.775
X224.155Y-142.875
X228.282Y-66.675
X228.917Y-38.1
X228.917Y-85.725
X233.045Y-104.775
X233.68Y-123.825
X237.807Y-38.1
X237.807Y-85.725
X238.442Y-66.675
X242.57Y-123.825
X243.205Y-104.775
X247.332Y-66.675
X247.968Y-38.1
X247.968Y-85.725
X252.095Y-104.775
X252.73Y-123.825
X256.858Y-85.725
X257.493Y-66.675
X261.62Y-123.825
X262.255Y-104.775
X266.382Y-38.1
X266.382Y-66.675
X267.017Y-85.725
X271.145Y-104.775
X271.145Y-142.875
X271.78Y-123.825
X275.907Y-85.725
X276.542Y-38.1
X276.542Y-66.675
X280.67Y-123.825
X281.305Y-104.775
X281.305Y-142.875
X285.433Y-38.1
X285.433Y-66.675
X286.067Y-85.725
X290.195Y-104.775
X290.83Y-123.825
X294.957Y-85.725
X295.592Y-38.1
X295.592Y-66.675
X299.72Y-123.825
X300.355Y-104.775
X304.482Y-38.1
X304.482Y-66.675
X305.118Y-85.725
X309.245Y-104.775
X309.88Y-123.825
X311.626Y-142.875
X314.007Y-85.725
X314.642Y-38.1
X314.642Y-66.675
X318.77Y-123.825
X319.405Y-104.775
X321.786Y-142.875
X323.532Y-38.1
X323.532Y-66.675
X324.167Y-85.725
X328.295Y-104.775
X328.93Y-123.825
X333.058Y-85.725
X333.692Y-38.1
X333.692Y-66.675
X335.439Y-142.875
X338.455Y-104.775
X342.582Y-66.675
X343.217Y-85.725
X345.599Y-142.875
X349.726Y-123.825
X352.743Y-66.675
X354.489Y-104.775
X356.87Y-85.725
X359.251Y-142.875
X359.886Y-123.825
X361.632Y-38.1
X361.632Y-66.675
X364.649Y-104.775
X367.03Y-85.725
X369.411Y-142.875
X371.792Y-38.1
X371.792Y-66.675
T2
X97.599Y-59.69
X99.981Y-97.79
X104.743Y-116.84
X121.475Y-59.69
X123.857Y-97.79
X128.619Y-116.84
X200.025Y-135.89
X238.125Y-135.89
X257.175Y-135.89
X295.275Y-135.89
X342.868Y-116.84
X366.744Y-116.84
T3
X38.1Y-38.1
X38.1Y-66.675
X38.1Y-142.875
X57.15Y-38.1
X57.15Y-66.675
X57.15Y-123.825
X57.15Y-142.875
X76.2Y-38.1
X76.2Y-66.675
X76.2Y-142.875
X97.599Y-74.9
X99.981Y-113.0
X100.012Y-38.1
X102.394Y-142.875
X104.743Y-132.05
X104.775Y-85.725
X109.537Y-66.675
X111.919Y-104.775
X116.681Y-123.825
X119.062Y-38.1
X121.475Y-74.9
X123.857Y-113.0
X126.206Y-142.875
X128.588Y-85.725
X128.619Y-132.05
X138.112Y-38.1
X138.112Y-66.675
X142.875Y-104.775
X147.637Y-85.725
X150.019Y-142.875
X152.4Y-123.825
X157.162Y-38.1
X157.162Y-66.675
X161.925Y-104.775
X166.688Y-85.725
X171.45Y-123.825
X176.213Y-66.675
X176.213Y-142.875
X180.975Y-104.775
X185.737Y-38.1
X185.737Y-85.725
X190.5Y-123.825
X195.262Y-66.675
X200.025Y-104.775
X200.025Y-151.1
X204.787Y-38.1
X204.787Y-85.725
X209.55Y-123.825
X214.312Y-66.675
X219.075Y-104.775
X219.075Y-142.875
X223.837Y-38.1
X223.837Y-85.725
X228.6Y-123.825
X233.362Y-66.675
X238.125Y-104.775
X238.125Y-151.1
X242.887Y-38.1
X242.887Y-85.725
X247.65Y-123.825
X252.412Y-66.675
X257.175Y-104.775
X257.175Y-151.1
X261.938Y-85.725
X266.7Y-123.825
X271.462Y-38.1
X271.462Y-66.675
X276.225Y-104.775
X276.225Y-142.875
X280.988Y-85.725
X285.75Y-123.825
X290.512Y-38.1
X290.512Y-66.675
X295.275Y-104.775
X295.275Y-151.1
X300.037Y-85.725
X304.8Y-123.825
X309.562Y-38.1
X309.562Y-66.675
X314.325Y-104.775
X316.706Y-142.875
X319.087Y-85.725
X323.85Y-123.825
X328.613Y-38.1
X328.613Y-66.675
X333.375Y-104.775
X338.137Y-85.725
X340.519Y-142.875
X342.868Y-132.05
X347.662Y-66.675
X354.806Y-123.825
X359.569Y-104.775
X361.95Y-85.725
X364.331Y-142.875
X366.712Y-38.1
X366.712Y-66.675
X366.744Y-132.05
M30
