G04 #@! TF.GenerationSoftware,KiCad,Pcbnew,9.0.5*
G04 #@! TF.CreationDate,2026-01-22T23:22:38-08:00*
G04 #@! TF.ProjectId,alana-kb,616c616e-612d-46b6-922e-6b696361645f,rev?*
G04 #@! TF.SameCoordinates,Original*
G04 #@! TF.FileFunction,Soldermask,Top*
G04 #@! TF.FilePolarity,Negative*
%FSLAX46Y46*%
G04 Gerber Fmt 4.6, Leading zero omitted, Abs format (unit mm)*
G04 Created by KiCad (PCBNEW 9.0.5) date 2026-01-22 23:22:38*
%MOMM*%
%LPD*%
G01*
G04 APERTURE LIST*
G04 Aperture macros list*
%AMRoundRect*
0 Rectangle with rounded corners*
0 $1 Rounding radius*
0 $2 $3 $4 $5 $6 $7 $8 $9 X,Y pos of 4 corners*
0 Add a 4 corners polygon primitive as box body*
4,1,4,$2,$3,$4,$5,$6,$7,$8,$9,$2,$3,0*
0 Add four circle primitives for the rounded corners*
1,1,$1+$1,$2,$3*
1,1,$1+$1,$4,$5*
1,1,$1+$1,$6,$7*
1,1,$1+$1,$8,$9*
0 Add four rect primitives between the rounded corners*
20,1,$1+$1,$2,$3,$4,$5,0*
20,1,$1+$1,$4,$5,$6,$7,0*
20,1,$1+$1,$6,$7,$8,$9,0*
20,1,$1+$1,$8,$9,$2,$3,0*%
G04 Aperture macros list end*
%ADD10RoundRect,0.225000X0.375000X-0.225000X0.375000X0.225000X-0.375000X0.225000X-0.375000X-0.225000X0*%
%ADD11RoundRect,0.140000X-0.170000X0.140000X-0.170000X-0.140000X0.170000X-0.140000X0.170000X0.140000X0*%
%ADD12RoundRect,0.062500X-0.375000X-0.062500X0.375000X-0.062500X0.375000X0.062500X-0.375000X0.062500X0*%
%ADD13RoundRect,0.062500X-0.062500X-0.375000X0.062500X-0.375000X0.062500X0.375000X-0.062500X0.375000X0*%
%ADD14R,5.600000X5.600000*%
%ADD15C,3.500000*%
%ADD16RoundRect,0.140000X-0.140000X-0.170000X0.140000X-0.170000X0.140000X0.170000X-0.140000X0.170000X0*%
%ADD17RoundRect,0.250000X-0.475000X0.250000X-0.475000X-0.250000X0.475000X-0.250000X0.475000X0.250000X0*%
%ADD18RoundRect,0.225000X-0.250000X0.225000X-0.250000X-0.225000X0.250000X-0.225000X0.250000X0.225000X0*%
%ADD19C,2.000000*%
%ADD20C,4.500000*%
%ADD21RoundRect,0.150000X0.512500X0.150000X-0.512500X0.150000X-0.512500X-0.150000X0.512500X-0.150000X0*%
%ADD22RoundRect,0.225000X0.250000X-0.225000X0.250000X0.225000X-0.250000X0.225000X-0.250000X-0.225000X0*%
%ADD23RoundRect,0.218750X0.381250X-0.218750X0.381250X0.218750X-0.381250X0.218750X-0.381250X-0.218750X0*%
%ADD24RoundRect,0.135000X0.185000X-0.135000X0.185000X0.135000X-0.185000X0.135000X-0.185000X-0.135000X0*%
%ADD25R,0.609600X0.889000*%
%ADD26R,0.762000X0.838200*%
%ADD27RoundRect,0.140000X0.170000X-0.140000X0.170000X0.140000X-0.170000X0.140000X-0.170000X-0.140000X0*%
%ADD28C,1.000000*%
%ADD29RoundRect,0.140000X0.140000X0.170000X-0.140000X0.170000X-0.140000X-0.170000X0.140000X-0.170000X0*%
%ADD30C,1.750000*%
%ADD31C,3.987800*%
%ADD32C,2.300000*%
%ADD33C,3.048000*%
G04 APERTURE END LIST*
D10*
X209312500Y-72325000D03*
X209312500Y-69025000D03*
X252175000Y-110425000D03*
X252175000Y-107125000D03*
X71200000Y-148525000D03*
X71200000Y-145225000D03*
D11*
X75250000Y-97520000D03*
X75250000Y-98480000D03*
D10*
X242650000Y-129475000D03*
X242650000Y-126175000D03*
X218837500Y-91375000D03*
X218837500Y-88075000D03*
D12*
X66812500Y-98000000D03*
X66812500Y-98500000D03*
X66812500Y-99000000D03*
X66812500Y-99500000D03*
X66812500Y-100000000D03*
X66812500Y-100500000D03*
X66812500Y-101000000D03*
X66812500Y-101500000D03*
X66812500Y-102000000D03*
X66812500Y-102500000D03*
X66812500Y-103000000D03*
X66812500Y-103500000D03*
D13*
X67500000Y-104187500D03*
X68000000Y-104187500D03*
X68500000Y-104187500D03*
X69000000Y-104187500D03*
X69500000Y-104187500D03*
X70000000Y-104187500D03*
X70500000Y-104187500D03*
X71000000Y-104187500D03*
X71500000Y-104187500D03*
X72000000Y-104187500D03*
X72500000Y-104187500D03*
X73000000Y-104187500D03*
D12*
X73687500Y-103500000D03*
X73687500Y-103000000D03*
X73687500Y-102500000D03*
X73687500Y-102000000D03*
X73687500Y-101500000D03*
X73687500Y-101000000D03*
X73687500Y-100500000D03*
X73687500Y-100000000D03*
X73687500Y-99500000D03*
X73687500Y-99000000D03*
X73687500Y-98500000D03*
X73687500Y-98000000D03*
D13*
X73000000Y-97312500D03*
X72500000Y-97312500D03*
X72000000Y-97312500D03*
X71500000Y-97312500D03*
X71000000Y-97312500D03*
X70500000Y-97312500D03*
X70000000Y-97312500D03*
X69500000Y-97312500D03*
X69000000Y-97312500D03*
X68500000Y-97312500D03*
X68000000Y-97312500D03*
X67500000Y-97312500D03*
D14*
X70250000Y-100750000D03*
D10*
X171212500Y-148525000D03*
X171212500Y-145225000D03*
D15*
X361950000Y-52387500D03*
D10*
X204550000Y-129475000D03*
X204550000Y-126175000D03*
X195025000Y-110425000D03*
X195025000Y-107125000D03*
X175975000Y-110425000D03*
X175975000Y-107125000D03*
D16*
X67270000Y-95750000D03*
X68230000Y-95750000D03*
D10*
X314087500Y-91375000D03*
X314087500Y-88075000D03*
X52150000Y-129475000D03*
X52150000Y-126175000D03*
X166450000Y-129475000D03*
X166450000Y-126175000D03*
X123587500Y-91375000D03*
X123587500Y-88075000D03*
X145018750Y-148525000D03*
X145018750Y-145225000D03*
X214075000Y-148525000D03*
X214075000Y-145225000D03*
D17*
X217000000Y-31550000D03*
X217000000Y-33450000D03*
D10*
X218837500Y-43750000D03*
X218837500Y-40450000D03*
X333137500Y-91375000D03*
X333137500Y-88075000D03*
X171212500Y-72325000D03*
X171212500Y-69025000D03*
X323612500Y-43750000D03*
X323612500Y-40450000D03*
D18*
X71500000Y-90975000D03*
X71500000Y-92525000D03*
D10*
X161687500Y-91375000D03*
X161687500Y-88075000D03*
X237887500Y-91375000D03*
X237887500Y-88075000D03*
D15*
X169068750Y-52387500D03*
D10*
X275987500Y-91375000D03*
X275987500Y-88075000D03*
X180737500Y-91375000D03*
X180737500Y-88075000D03*
X271225000Y-110425000D03*
X271225000Y-107125000D03*
X199787500Y-43750000D03*
X199787500Y-40450000D03*
X133112500Y-43750000D03*
X133112500Y-40450000D03*
X223600000Y-129475000D03*
X223600000Y-126175000D03*
X311706250Y-148525000D03*
X311706250Y-145225000D03*
X190262500Y-72325000D03*
X190262500Y-69025000D03*
X180737500Y-43750000D03*
X180737500Y-40450000D03*
X323612500Y-72325000D03*
X323612500Y-69025000D03*
X349806250Y-129475000D03*
X349806250Y-126175000D03*
X285512500Y-72325000D03*
X285512500Y-69025000D03*
D18*
X73000000Y-90975000D03*
X73000000Y-92525000D03*
D10*
X133112500Y-72325000D03*
X133112500Y-69025000D03*
X335518750Y-148525000D03*
X335518750Y-145225000D03*
X304562500Y-43750000D03*
X304562500Y-40450000D03*
D19*
X76200000Y-88100000D03*
D10*
X97393750Y-148525000D03*
X97393750Y-145225000D03*
X33100000Y-148525000D03*
X33100000Y-145225000D03*
D20*
X24000000Y-157000000D03*
D21*
X71387500Y-84200000D03*
X71387500Y-83250000D03*
X71387500Y-82300000D03*
X69112500Y-82300000D03*
X69112500Y-84200000D03*
D10*
X114062500Y-43750000D03*
X114062500Y-40450000D03*
D22*
X73345539Y-84039976D03*
X73345539Y-82489976D03*
D10*
X71200000Y-72325000D03*
X71200000Y-69025000D03*
D15*
X52387500Y-80962500D03*
D10*
X106918750Y-110425000D03*
X106918750Y-107125000D03*
X137875000Y-110425000D03*
X137875000Y-107125000D03*
X33100000Y-43750000D03*
X33100000Y-40450000D03*
X111681250Y-129475000D03*
X111681250Y-126175000D03*
X285512500Y-43750000D03*
X285512500Y-40450000D03*
X266462500Y-43750000D03*
X266462500Y-40450000D03*
X185500000Y-129475000D03*
X185500000Y-126175000D03*
X52150000Y-43750000D03*
X52150000Y-40450000D03*
X290275000Y-110425000D03*
X290275000Y-107125000D03*
X233125000Y-110425000D03*
X233125000Y-107125000D03*
X309325000Y-110425000D03*
X309325000Y-107125000D03*
X121206250Y-148525000D03*
X121206250Y-145225000D03*
X280750000Y-129475000D03*
X280750000Y-126175000D03*
X271225000Y-148525000D03*
X271225000Y-145225000D03*
X214075000Y-110425000D03*
X214075000Y-107125000D03*
X356950000Y-91375000D03*
X356950000Y-88075000D03*
X52150000Y-72325000D03*
X52150000Y-69025000D03*
X361712500Y-43750000D03*
X361712500Y-40450000D03*
X295037500Y-91375000D03*
X295037500Y-88075000D03*
D23*
X217000000Y-29812500D03*
X217000000Y-27687500D03*
D24*
X68750000Y-92260000D03*
X68750000Y-91240000D03*
D10*
X228362500Y-72325000D03*
X228362500Y-69025000D03*
X318850000Y-129475000D03*
X318850000Y-126175000D03*
D25*
X216099999Y-25882900D03*
X214899999Y-25882900D03*
X213700001Y-25882900D03*
X212500001Y-25882900D03*
D26*
X217249999Y-22107899D03*
X211350001Y-22107899D03*
D10*
X299800000Y-129475000D03*
X299800000Y-126175000D03*
X104537500Y-72325000D03*
X104537500Y-69025000D03*
X328375000Y-110425000D03*
X328375000Y-107125000D03*
D18*
X70000000Y-90975000D03*
X70000000Y-92525000D03*
D10*
X156925000Y-110425000D03*
X156925000Y-107125000D03*
X142637500Y-91375000D03*
X142637500Y-88075000D03*
X342662500Y-72325000D03*
X342662500Y-69025000D03*
X71200000Y-43750000D03*
X71200000Y-40450000D03*
D27*
X67750000Y-92230000D03*
X67750000Y-91270000D03*
D10*
X199787500Y-91375000D03*
X199787500Y-88075000D03*
X33100000Y-72325000D03*
X33100000Y-69025000D03*
X361712500Y-72325000D03*
X361712500Y-69025000D03*
X152162500Y-72325000D03*
X152162500Y-69025000D03*
D28*
X65999000Y-92400000D03*
D22*
X67095539Y-84039976D03*
X67095539Y-82489976D03*
D10*
X52150000Y-148525000D03*
X52150000Y-145225000D03*
X237887500Y-43750000D03*
X237887500Y-40450000D03*
X359331250Y-148525000D03*
X359331250Y-145225000D03*
X99775000Y-91375000D03*
X99775000Y-88075000D03*
X354568750Y-110425000D03*
X354568750Y-107125000D03*
X256937500Y-91375000D03*
X256937500Y-88075000D03*
X95012500Y-43750000D03*
X95012500Y-40450000D03*
D15*
X190500000Y-140493750D03*
D10*
X266462500Y-72325000D03*
X266462500Y-69025000D03*
X261700000Y-129475000D03*
X261700000Y-126175000D03*
D27*
X65250000Y-97980000D03*
X65250000Y-97020000D03*
X65250000Y-102230000D03*
X65250000Y-101270000D03*
D10*
X152162500Y-43750000D03*
X152162500Y-40450000D03*
X304562500Y-72325000D03*
X304562500Y-69025000D03*
D19*
X76200000Y-84000000D03*
D29*
X73730000Y-105750000D03*
X72770000Y-105750000D03*
D20*
X380500000Y-24500000D03*
D10*
X247412500Y-72325000D03*
X247412500Y-69025000D03*
X147400000Y-129475000D03*
X147400000Y-126175000D03*
D30*
X224155000Y-104775000D03*
D31*
X219075000Y-104775000D03*
D30*
X213995000Y-104775000D03*
D32*
X222885000Y-102235000D03*
X216535000Y-99695000D03*
D30*
X181292500Y-142875000D03*
D31*
X176212500Y-142875000D03*
D30*
X171132500Y-142875000D03*
D32*
X180022500Y-140335000D03*
X173672500Y-137795000D03*
D30*
X195580000Y-123825000D03*
D31*
X190500000Y-123825000D03*
D30*
X185420000Y-123825000D03*
D32*
X194310000Y-121285000D03*
X187960000Y-118745000D03*
D30*
X276542500Y-38100000D03*
D31*
X271462500Y-38100000D03*
D30*
X266382500Y-38100000D03*
D32*
X275272500Y-35560000D03*
X268922500Y-33020000D03*
D30*
X109855000Y-85725000D03*
D31*
X104775000Y-85725000D03*
D30*
X99695000Y-85725000D03*
D32*
X108585000Y-83185000D03*
X102235000Y-80645000D03*
D31*
X295275000Y-151100000D03*
D33*
X295275000Y-135890000D03*
D31*
X257175000Y-151100000D03*
D33*
X257175000Y-135890000D03*
D30*
X171767500Y-85725000D03*
D31*
X166687500Y-85725000D03*
D30*
X161607500Y-85725000D03*
D32*
X170497500Y-83185000D03*
X164147500Y-80645000D03*
D30*
X324167500Y-85725000D03*
D31*
X319087500Y-85725000D03*
D30*
X314007500Y-85725000D03*
D32*
X322897500Y-83185000D03*
X316547500Y-80645000D03*
D31*
X128619250Y-132050000D03*
D33*
X128619250Y-116840000D03*
D31*
X104743250Y-132050000D03*
D33*
X104743250Y-116840000D03*
D30*
X152717500Y-85725000D03*
D31*
X147637500Y-85725000D03*
D30*
X142557500Y-85725000D03*
D32*
X151447500Y-83185000D03*
X145097500Y-80645000D03*
D30*
X364648750Y-104775000D03*
D31*
X359568750Y-104775000D03*
D30*
X354488750Y-104775000D03*
D32*
X363378750Y-102235000D03*
X357028750Y-99695000D03*
D30*
X114617500Y-66675000D03*
D31*
X109537500Y-66675000D03*
D30*
X104457500Y-66675000D03*
D32*
X113347500Y-64135000D03*
X106997500Y-61595000D03*
D30*
X162242500Y-66675000D03*
D31*
X157162500Y-66675000D03*
D30*
X152082500Y-66675000D03*
D32*
X160972500Y-64135000D03*
X154622500Y-61595000D03*
D30*
X209867500Y-38100000D03*
D31*
X204787500Y-38100000D03*
D30*
X199707500Y-38100000D03*
D32*
X208597500Y-35560000D03*
X202247500Y-33020000D03*
D30*
X247967500Y-85725000D03*
D31*
X242887500Y-85725000D03*
D30*
X237807500Y-85725000D03*
D32*
X246697500Y-83185000D03*
X240347500Y-80645000D03*
D30*
X343217500Y-85725000D03*
D31*
X338137500Y-85725000D03*
D30*
X333057500Y-85725000D03*
D32*
X341947500Y-83185000D03*
X335597500Y-80645000D03*
D30*
X116998750Y-104775000D03*
D31*
X111918750Y-104775000D03*
D30*
X106838750Y-104775000D03*
D32*
X115728750Y-102235000D03*
X109378750Y-99695000D03*
D30*
X247967500Y-38100000D03*
D31*
X242887500Y-38100000D03*
D30*
X237807500Y-38100000D03*
D32*
X246697500Y-35560000D03*
X240347500Y-33020000D03*
D30*
X314642500Y-66675000D03*
D31*
X309562500Y-66675000D03*
D30*
X304482500Y-66675000D03*
D32*
X313372500Y-64135000D03*
X307022500Y-61595000D03*
D30*
X121761250Y-123825000D03*
D31*
X116681250Y-123825000D03*
D30*
X111601250Y-123825000D03*
D32*
X120491250Y-121285000D03*
X114141250Y-118745000D03*
D30*
X186055000Y-104775000D03*
D31*
X180975000Y-104775000D03*
D30*
X175895000Y-104775000D03*
D32*
X184785000Y-102235000D03*
X178435000Y-99695000D03*
D30*
X295592500Y-38100000D03*
D31*
X290512500Y-38100000D03*
D30*
X285432500Y-38100000D03*
D32*
X294322500Y-35560000D03*
X287972500Y-33020000D03*
D30*
X224155000Y-142875000D03*
D31*
X219075000Y-142875000D03*
D30*
X213995000Y-142875000D03*
D32*
X222885000Y-140335000D03*
X216535000Y-137795000D03*
D31*
X366744250Y-132050000D03*
D33*
X366744250Y-116840000D03*
D31*
X342868250Y-132050000D03*
D33*
X342868250Y-116840000D03*
D30*
X233680000Y-123825000D03*
D31*
X228600000Y-123825000D03*
D30*
X223520000Y-123825000D03*
D32*
X232410000Y-121285000D03*
X226060000Y-118745000D03*
D30*
X309880000Y-123825000D03*
D31*
X304800000Y-123825000D03*
D30*
X299720000Y-123825000D03*
D32*
X308610000Y-121285000D03*
X302260000Y-118745000D03*
D30*
X81280000Y-66675000D03*
D31*
X76200000Y-66675000D03*
D30*
X71120000Y-66675000D03*
D32*
X80010000Y-64135000D03*
X73660000Y-61595000D03*
D30*
X371792500Y-66675000D03*
D31*
X366712500Y-66675000D03*
D30*
X361632500Y-66675000D03*
D32*
X370522500Y-64135000D03*
X364172500Y-61595000D03*
D30*
X162242500Y-38100000D03*
D31*
X157162500Y-38100000D03*
D30*
X152082500Y-38100000D03*
D32*
X160972500Y-35560000D03*
X154622500Y-33020000D03*
D30*
X359886250Y-123825000D03*
D31*
X354806250Y-123825000D03*
D30*
X349726250Y-123825000D03*
D32*
X358616250Y-121285000D03*
X352266250Y-118745000D03*
D30*
X333692500Y-38100000D03*
D31*
X328612500Y-38100000D03*
D30*
X323532500Y-38100000D03*
D32*
X332422500Y-35560000D03*
X326072500Y-33020000D03*
D30*
X333692500Y-66675000D03*
D31*
X328612500Y-66675000D03*
D30*
X323532500Y-66675000D03*
D32*
X332422500Y-64135000D03*
X326072500Y-61595000D03*
D30*
X328930000Y-123825000D03*
D31*
X323850000Y-123825000D03*
D30*
X318770000Y-123825000D03*
D32*
X327660000Y-121285000D03*
X321310000Y-118745000D03*
D30*
X281305000Y-104775000D03*
D31*
X276225000Y-104775000D03*
D30*
X271145000Y-104775000D03*
D32*
X280035000Y-102235000D03*
X273685000Y-99695000D03*
D30*
X257492500Y-66675000D03*
D31*
X252412500Y-66675000D03*
D30*
X247332500Y-66675000D03*
D32*
X256222500Y-64135000D03*
X249872500Y-61595000D03*
D30*
X262255000Y-104775000D03*
D31*
X257175000Y-104775000D03*
D30*
X252095000Y-104775000D03*
D32*
X260985000Y-102235000D03*
X254635000Y-99695000D03*
D30*
X62230000Y-38100000D03*
D31*
X57150000Y-38100000D03*
D30*
X52070000Y-38100000D03*
D32*
X60960000Y-35560000D03*
X54610000Y-33020000D03*
D30*
X243205000Y-104775000D03*
D31*
X238125000Y-104775000D03*
D30*
X233045000Y-104775000D03*
D32*
X241935000Y-102235000D03*
X235585000Y-99695000D03*
D30*
X276542500Y-66675000D03*
D31*
X271462500Y-66675000D03*
D30*
X266382500Y-66675000D03*
D32*
X275272500Y-64135000D03*
X268922500Y-61595000D03*
D30*
X176530000Y-123825000D03*
D31*
X171450000Y-123825000D03*
D30*
X166370000Y-123825000D03*
D32*
X175260000Y-121285000D03*
X168910000Y-118745000D03*
D30*
X271780000Y-123825000D03*
D31*
X266700000Y-123825000D03*
D30*
X261620000Y-123825000D03*
D32*
X270510000Y-121285000D03*
X264160000Y-118745000D03*
D30*
X200342500Y-66675000D03*
D31*
X195262500Y-66675000D03*
D30*
X190182500Y-66675000D03*
D32*
X199072500Y-64135000D03*
X192722500Y-61595000D03*
D30*
X209867500Y-85725000D03*
D31*
X204787500Y-85725000D03*
D30*
X199707500Y-85725000D03*
D32*
X208597500Y-83185000D03*
X202247500Y-80645000D03*
D30*
X267017500Y-85725000D03*
D31*
X261937500Y-85725000D03*
D30*
X256857500Y-85725000D03*
D32*
X265747500Y-83185000D03*
X259397500Y-80645000D03*
D30*
X167005000Y-104775000D03*
D31*
X161925000Y-104775000D03*
D30*
X156845000Y-104775000D03*
D32*
X165735000Y-102235000D03*
X159385000Y-99695000D03*
D30*
X300355000Y-104775000D03*
D31*
X295275000Y-104775000D03*
D30*
X290195000Y-104775000D03*
D32*
X299085000Y-102235000D03*
X292735000Y-99695000D03*
D30*
X238442500Y-66675000D03*
D31*
X233362500Y-66675000D03*
D30*
X228282500Y-66675000D03*
D32*
X237172500Y-64135000D03*
X230822500Y-61595000D03*
D30*
X107473750Y-142875000D03*
D31*
X102393750Y-142875000D03*
D30*
X97313750Y-142875000D03*
D32*
X106203750Y-140335000D03*
X99853750Y-137795000D03*
D30*
X181292500Y-66675000D03*
D31*
X176212500Y-66675000D03*
D30*
X171132500Y-66675000D03*
D32*
X180022500Y-64135000D03*
X173672500Y-61595000D03*
D30*
X214630000Y-123825000D03*
D31*
X209550000Y-123825000D03*
D30*
X204470000Y-123825000D03*
D32*
X213360000Y-121285000D03*
X207010000Y-118745000D03*
D30*
X338455000Y-104775000D03*
D31*
X333375000Y-104775000D03*
D30*
X328295000Y-104775000D03*
D32*
X337185000Y-102235000D03*
X330835000Y-99695000D03*
D30*
X228917500Y-38100000D03*
D31*
X223837500Y-38100000D03*
D30*
X218757500Y-38100000D03*
D32*
X227647500Y-35560000D03*
X221297500Y-33020000D03*
D30*
X133667500Y-85725000D03*
D31*
X128587500Y-85725000D03*
D30*
X123507500Y-85725000D03*
D32*
X132397500Y-83185000D03*
X126047500Y-80645000D03*
D30*
X105092500Y-38100000D03*
D31*
X100012500Y-38100000D03*
D30*
X94932500Y-38100000D03*
D32*
X103822500Y-35560000D03*
X97472500Y-33020000D03*
D30*
X62230000Y-123825000D03*
D31*
X57150000Y-123825000D03*
D30*
X52070000Y-123825000D03*
D32*
X60960000Y-121285000D03*
X54610000Y-118745000D03*
D30*
X43180000Y-66675000D03*
D31*
X38100000Y-66675000D03*
D30*
X33020000Y-66675000D03*
D32*
X41910000Y-64135000D03*
X35560000Y-61595000D03*
D30*
X305117500Y-85725000D03*
D31*
X300037500Y-85725000D03*
D30*
X294957500Y-85725000D03*
D32*
X303847500Y-83185000D03*
X297497500Y-80645000D03*
D30*
X124142500Y-38100000D03*
D31*
X119062500Y-38100000D03*
D30*
X113982500Y-38100000D03*
D32*
X122872500Y-35560000D03*
X116522500Y-33020000D03*
D30*
X252730000Y-123825000D03*
D31*
X247650000Y-123825000D03*
D30*
X242570000Y-123825000D03*
D32*
X251460000Y-121285000D03*
X245110000Y-118745000D03*
D30*
X352742500Y-66675000D03*
D31*
X347662500Y-66675000D03*
D30*
X342582500Y-66675000D03*
D32*
X351472500Y-64135000D03*
X345122500Y-61595000D03*
D30*
X367030000Y-85725000D03*
D31*
X361950000Y-85725000D03*
D30*
X356870000Y-85725000D03*
D32*
X365760000Y-83185000D03*
X359410000Y-80645000D03*
D30*
X219392500Y-66675000D03*
D31*
X214312500Y-66675000D03*
D30*
X209232500Y-66675000D03*
D32*
X218122500Y-64135000D03*
X211772500Y-61595000D03*
D30*
X157480000Y-123825000D03*
D31*
X152400000Y-123825000D03*
D30*
X147320000Y-123825000D03*
D32*
X156210000Y-121285000D03*
X149860000Y-118745000D03*
D30*
X321786250Y-142875000D03*
D31*
X316706250Y-142875000D03*
D30*
X311626250Y-142875000D03*
D32*
X320516250Y-140335000D03*
X314166250Y-137795000D03*
D30*
X81280000Y-38100000D03*
D31*
X76200000Y-38100000D03*
D30*
X71120000Y-38100000D03*
D32*
X80010000Y-35560000D03*
X73660000Y-33020000D03*
D30*
X319405000Y-104775000D03*
D31*
X314325000Y-104775000D03*
D30*
X309245000Y-104775000D03*
D32*
X318135000Y-102235000D03*
X311785000Y-99695000D03*
D30*
X314642500Y-38100000D03*
D31*
X309562500Y-38100000D03*
D30*
X304482500Y-38100000D03*
D32*
X313372500Y-35560000D03*
X307022500Y-33020000D03*
D30*
X190817500Y-85725000D03*
D31*
X185737500Y-85725000D03*
D30*
X180657500Y-85725000D03*
D32*
X189547500Y-83185000D03*
X183197500Y-80645000D03*
D30*
X43180000Y-142875000D03*
D31*
X38100000Y-142875000D03*
D30*
X33020000Y-142875000D03*
D32*
X41910000Y-140335000D03*
X35560000Y-137795000D03*
D30*
X143192500Y-38100000D03*
D31*
X138112500Y-38100000D03*
D30*
X133032500Y-38100000D03*
D32*
X141922500Y-35560000D03*
X135572500Y-33020000D03*
D30*
X131286250Y-142875000D03*
D31*
X126206250Y-142875000D03*
D30*
X121126250Y-142875000D03*
D32*
X130016250Y-140335000D03*
X123666250Y-137795000D03*
D30*
X345598750Y-142875000D03*
D31*
X340518750Y-142875000D03*
D30*
X335438750Y-142875000D03*
D32*
X344328750Y-140335000D03*
X337978750Y-137795000D03*
D30*
X143192500Y-66675000D03*
D31*
X138112500Y-66675000D03*
D30*
X133032500Y-66675000D03*
D32*
X141922500Y-64135000D03*
X135572500Y-61595000D03*
D30*
X62230000Y-66675000D03*
D31*
X57150000Y-66675000D03*
D30*
X52070000Y-66675000D03*
D32*
X60960000Y-64135000D03*
X54610000Y-61595000D03*
D31*
X238125000Y-151100000D03*
D33*
X238125000Y-135890000D03*
D31*
X200025000Y-151100000D03*
D33*
X200025000Y-135890000D03*
D30*
X205105000Y-104775000D03*
D31*
X200025000Y-104775000D03*
D30*
X194945000Y-104775000D03*
D32*
X203835000Y-102235000D03*
X197485000Y-99695000D03*
D30*
X290830000Y-123825000D03*
D31*
X285750000Y-123825000D03*
D30*
X280670000Y-123825000D03*
D32*
X289560000Y-121285000D03*
X283210000Y-118745000D03*
D30*
X228917500Y-85725000D03*
D31*
X223837500Y-85725000D03*
D30*
X218757500Y-85725000D03*
D32*
X227647500Y-83185000D03*
X221297500Y-80645000D03*
D30*
X147955000Y-104775000D03*
D31*
X142875000Y-104775000D03*
D30*
X137795000Y-104775000D03*
D32*
X146685000Y-102235000D03*
X140335000Y-99695000D03*
D30*
X155098750Y-142875000D03*
D31*
X150018750Y-142875000D03*
D30*
X144938750Y-142875000D03*
D32*
X153828750Y-140335000D03*
X147478750Y-137795000D03*
D30*
X43180000Y-38100000D03*
D31*
X38100000Y-38100000D03*
D30*
X33020000Y-38100000D03*
D32*
X41910000Y-35560000D03*
X35560000Y-33020000D03*
D30*
X286067500Y-85725000D03*
D31*
X280987500Y-85725000D03*
D30*
X275907500Y-85725000D03*
D32*
X284797500Y-83185000D03*
X278447500Y-80645000D03*
D30*
X81280000Y-142875000D03*
D31*
X76200000Y-142875000D03*
D30*
X71120000Y-142875000D03*
D32*
X80010000Y-140335000D03*
X73660000Y-137795000D03*
D30*
X369411250Y-142875000D03*
D31*
X364331250Y-142875000D03*
D30*
X359251250Y-142875000D03*
D32*
X368141250Y-140335000D03*
X361791250Y-137795000D03*
D30*
X190817500Y-38100000D03*
D31*
X185737500Y-38100000D03*
D30*
X180657500Y-38100000D03*
D32*
X189547500Y-35560000D03*
X183197500Y-33020000D03*
D31*
X123856750Y-113000000D03*
D33*
X123856750Y-97790000D03*
D31*
X99980750Y-113000000D03*
D33*
X99980750Y-97790000D03*
D30*
X371792500Y-38100000D03*
D31*
X366712500Y-38100000D03*
D30*
X361632500Y-38100000D03*
D32*
X370522500Y-35560000D03*
X364172500Y-33020000D03*
D31*
X121475500Y-74900000D03*
D33*
X121475500Y-59690000D03*
D31*
X97599500Y-74900000D03*
D33*
X97599500Y-59690000D03*
D30*
X281305000Y-142875000D03*
D31*
X276225000Y-142875000D03*
D30*
X271145000Y-142875000D03*
D32*
X280035000Y-140335000D03*
X273685000Y-137795000D03*
D30*
X295592500Y-66675000D03*
D31*
X290512500Y-66675000D03*
D30*
X285432500Y-66675000D03*
D32*
X294322500Y-64135000D03*
X287972500Y-61595000D03*
D30*
X62230000Y-142875000D03*
D31*
X57150000Y-142875000D03*
D30*
X52070000Y-142875000D03*
D32*
X60960000Y-140335000D03*
X54610000Y-137795000D03*
M02*
